<?xml version="1.0" encoding="UTF-8"?>
<svg xmlns="http://www.w3.org/2000/svg" width="674.86" height="640" viewBox="298.07 -2.5 674.86 640">
  <!-- Created using SVG Map Generator: dojo.amcharts.com/svg-map-generator -->
  <style>
    .land { fill: #b19469; stroke: #2d2d2d; stroke-width: 0.5; }
  </style>
  <g id="polygons">
    <path d="M651.239,21.74L646.692,18.439L646.792,14.93L649.968,11.858L651.553,18.851ZM658.68,23.672L651.702,17.953L650.475,10.462L655.783,13.106L659.187,11.517L660.813,12.372L665.6,9.254L667.894,10.371L669.35,14.581L664.513,19.664ZM750.692,66.842L750.01,69.126L741.841,67.557L744.268,60.281L750.001,60.576L747.666,64.843L747.819,67.081ZM760.814,112.651L751.768,158.228L741.46,203.849L729.869,249.51L716.973,295.207L662.313,295.975L608.093,295.217L586.655,295.205L572.231,295.312L583.405,253.031L593.534,210.78L610.723,126.384L616.863,90.362L618.469,80.179L622.09,79.992L628.338,81.64L629.892,78.154L628.304,73.994L625.713,71.36L628.699,66.127L633.074,63.284L635.98,54.075L639.499,53.94L643.678,50.382L641.703,46.958L642.316,43.542L645.863,42.072L646.877,37.806L650.784,35.847L652.127,32.267L655.068,33.415L658.768,31.751L659.245,27.731L664.339,29.156L666.606,30.574L673.922,30.013L675.984,30.803L678.913,28.701L681.173,28.748L686.064,26.363L686.822,19.937L687.964,18.266L685.064,14.776L683.221,14.021L678.294,15.694L675.136,11.544L677.52,8.043L683.4,8.095L685.783,10.683L687.999,15.377L691.757,12.01L693.567,13.672L695.401,18.836L702.816,21.663L706.114,19.423L706.443,22.041L709.95,21.854L711.99,26.037L717.086,26.134L721.478,24.768L722.775,27.386L725.949,29.984L728.273,30.156L731.281,26.588L734.668,26.742L735.14,24.034L738.144,25.689L735.954,27.921L736.666,30.26L739.442,27.773L741.188,33.934L745.53,32.83L747.143,29.466L744.259,28.064L749.312,23.967L751.217,28.376L754.11,28.156L756.975,31.749L753.781,34.047L750.532,38.413L748.234,43.305L747.41,47.004L744.491,48.877L740.206,47.673L736.385,50.637L734.878,55.751L735.23,58.157L737.295,58.808L733.531,67.137L731.384,68.611L724.396,77.447L724.197,80.782L731.453,87.668L735.812,90.732L736.5,94.295L740.2,96.516L742.812,100.106L747.126,100.305L751.955,104.411L757.574,106.805Z" class="land" id="AU-NT" title="Northern Territory"/>
    <path d="M618.469,80.179L616.863,90.362L610.723,126.384L593.534,210.78L583.405,253.031L572.231,295.312L556.009,350.378L537.938,405.446L529.577,409.235L519.66,413.131L515.014,414.004L507.764,416.563L497.21,417.511L489.711,416.013L483.118,418.048L477.162,421.98L473.459,422.987L462.692,428.773L454.78,430.472L450.98,433.448L445.76,441.577L436.863,448.273L434.238,448.068L430.234,450.454L428.98,447.339L425.928,448.294L418.183,448.412L413.685,450.648L413.387,446.828L409.268,448.151L405.738,446.643L395.131,447.323L387.347,449.59L381.179,448.72L373.927,452.029L370.036,456.511L364.809,459.848L360.502,458.856L354.675,463.25L343.837,469.309L334.618,471.133L331.948,469.792L318.439,469.419L315.522,466.841L312.025,465.939L311.854,463.691L309.252,459.14L305.081,455.991L300.571,455.171L303.368,444.144L305.118,440.89L307.811,443.389L311.405,442.457L318.019,435.858L319.863,424.378L323.112,422.478L324.193,417.608L326.959,409.332L327.381,404.827L325.777,397.451L325.469,391.778L324.067,382.447L325.001,377.983L324.831,373.841L328.655,362.754L328.504,355.176L326.275,350.811L326.979,346.202L324.674,338.394L322.944,335.704L323.221,331.068L324.699,328.272L324.903,323.313L322.924,313.947L320.852,308.591L317.363,302.949L317.217,299.848L320.057,297.519L321.663,300.719L321.104,305.054L321.956,307.884L326.078,305.042L326.992,301.731L323.252,296.669L322.389,289.612L324.804,286.705L327.074,293.068L325.181,297.532L326.788,298.475L329.731,304.153L332.178,302.436L332.723,298.752L335.702,292.27L333.104,288.126L331.527,279.369L330.095,278.229L330.359,271.093L328.335,266.673L328.96,260.974L333.405,251.813L337.799,247.361L339.485,240.914L341.106,237.755L340.234,229.518L343.654,224.286L347.252,217.362L350.653,216.088L348.81,221.193L348.617,228.03L352.511,226.381L354.964,221.504L359.452,214.731L364.788,211.806L366.606,211.659L373.737,208.502L377.188,204.908L380.602,203.064L383.182,199.826L388.06,196.597L393.148,194.745L397.524,191.711L400.003,193.033L403.479,191.182L408.595,193.273L416.293,190.925L420.614,187.091L433.015,184.693L438.762,178.566L440.568,178.384L446.556,180.537L450.252,178.62L457.894,177.405L471.937,171.291L476.737,167.481L481.196,162.23L487.752,151.28L498.607,143.081L499.046,140.148L497.359,138.49L497.345,132.012L498.047,128.248L500.734,123.323L505.971,118.246L509.981,116.654L510.634,113.536L513.141,111.64L515.77,115.765L517.867,123.896L520.629,131.182L522.741,125.22L522.444,122.65L526.205,119.086L524.301,114.939L526.998,108.513L529.07,109.049L531.513,106.686L534.649,107.785L535.367,109.747L538.067,108.756L539.613,103.927L541.84,100.723L539.854,99.332L539.988,95.552L541.964,91.888L545.598,91.438L546.712,87.549L552.625,84.105L556.586,80.775L555.271,77.794L559.203,73.468L563.288,73.976L563.819,69.34L567.709,72.347L568.184,75.793L570.769,73.317L573.646,65.892L575.683,67.879L576.954,64.357L578.873,64.88L580.84,67.813L584.662,62.834L584.432,59.442L588.073,58.147L589.703,60.468L595.186,62.499L598.4,66.778L602.165,74.599L605.304,76.934L602.476,84.608L608.868,83.572L608.609,78.808L611.171,78.008ZM317.362,298.02L315.555,293.674L314.982,288.006L316.533,286.908Z" class="land" id="AU-WA" title="Western Australia"/>
    <path d="M820.222,487.146L818.677,486.288L818.133,482.028L821.812,475.616L827.29,472.552L829.017,474.59L823.369,481.423Z" class="land" id="AU-ACT" title="Australian Capital Territory"/>
    <path d="M820.075,517.927L799.164,504.135L800.902,500.463L800.442,496.264L802.566,489.895L799.28,487.682L794.136,488.018L791.862,489.833L785.328,490.747L779.949,488.302L776.148,489.725L768.1,488.132L766.33,485.466L762.957,486.437L757.216,486.389L754.692,490.696L751.59,491.474L749.636,490.191L748.105,484.479L745.728,480.714L739.729,476.02L738.392,472.905L738.995,468.876L740.657,465.424L735.847,463.42L733.64,461.464L730.704,464.45L728.392,465.104L727.621,460.52L728.712,457.742L728.087,453.985L725.728,452.266L720.993,452.164L716.936,453.974L713.562,451.648L710.089,450.561L729.133,401.953L746.564,353.311L780.512,353.308L805.351,353.308L825.612,353.308L873.419,353.308L884.402,345.522L888.022,346.1L898.414,344.514L899.967,346.671L905.213,346.216L908.539,348.185L911.253,351.938L910.449,356.429L912.687,355.529L915.281,352.399L918.507,351.102L919.454,352.825L923.086,351.249L924.759,348.088L924.589,344.595L932.328,341.212L934.999,339.035L938.695,340.915L944.374,340.776L946.227,339.039L952.087,336.849L952.59,339.246L950.551,343.462L950.382,346.743L948.656,350.639L944.833,354.154L941.012,359.665L940.944,361.023L935.084,371.753L926.71,383.684L924.466,388.848L924.696,391.044L915.592,404.749L906.491,413.935L904.582,419.209L895.975,424.601L895.529,426.309L889.32,428.599L882.457,435.92L880.166,436.88L878.64,440.437L875.773,442.911L871.849,449.505L863.46,456.509L860.051,460.89L855.107,469.659L849.555,473.808L844.818,479.625L837.339,487.595L833.435,495.08L824.382,506.564L823.792,511.164L821.768,513.48ZM818.677,486.288L820.222,487.146L823.369,481.423L829.017,474.59L827.29,472.552L821.812,475.616L818.133,482.028Z" class="land" id="AU-NSW" title="New South Wales"/>
    <path d="M648.097,483.519L650.19,484.172L648.532,487.252L644.643,486.157L638.083,490.391L637.219,488.831L626.737,489.839L625.165,487.149L627.028,484.291L639.959,480.84L643.106,481.11L643.07,483.859L646.527,485.012ZM537.938,405.446L556.009,350.378L572.231,295.312L586.655,295.205L608.093,295.217L662.313,295.975L716.973,295.207L765.239,295.211L746.564,353.311L729.133,401.953L710.089,450.561L709.908,450.006L693.303,489.32L675.603,528.556L671.368,528.705L667.94,524.655L667.226,518.276L665.585,517.54L664.374,511.895L666.777,506.531L669.571,504.083L671.021,499.45L671.199,492.793L669.39,487.018L670.638,482.785L673.558,476.663L671.777,475.547L667.242,477.32L666.358,480.197L662.301,479.837L658.474,482.053L652.705,482.364L653.474,479.723L659.469,476.07L663.214,469.91L665.29,464.187L663.791,459.378L663.618,452.705L658.725,458.322L655.713,463.843L648.828,472.936L645.36,471.746L640.362,474.223L635.093,474.293L638.317,471.356L639.693,468.633L647.648,467.435L650.223,462.829L654.493,452.866L657.871,447.851L665.783,441.571L665.797,436.129L670.575,433.254L667.31,430.611L664.211,431.325L658.876,436.561L657.527,439.056L651.93,444.557L649.156,443.925L646.849,446.362L641.44,448.778L636.724,451.839L632.516,456.516L626.708,460.476L622.462,465.856L619.437,468.534L617.413,462.546L619.398,455.687L620.166,450.22L618.385,445.619L616.33,443.089L617.482,441.227L617.638,434.179L616.115,433.459L611.499,434.674L612.458,427.027L615.108,422.789L613.512,420.173L608.76,421.884L610.403,416.251L607.995,413.296L605.302,415.458L600.404,415.09L596.011,410.549L591.352,410.477L586.206,411.918L581.549,406.019L573.408,401.214L566.87,403.853L558.705,403.193L541.832,404.782Z" class="land" id="AU-SA" title="South Australia"/>
    <path d="M675.603,528.556L693.303,489.32L709.908,450.006L710.089,450.561L713.562,451.648L716.936,453.974L720.993,452.164L725.728,452.266L728.087,453.985L728.712,457.742L727.621,460.52L728.392,465.104L730.704,464.45L733.64,461.464L735.847,463.42L740.657,465.424L738.995,468.876L738.392,472.905L739.729,476.02L745.728,480.714L748.105,484.479L749.636,490.191L751.59,491.474L754.692,490.696L757.216,486.389L762.957,486.437L766.33,485.466L768.1,488.132L776.148,489.725L779.949,488.302L785.328,490.747L791.862,489.833L794.136,488.018L799.28,487.682L802.566,489.895L800.442,496.264L800.902,500.463L799.164,504.135L820.075,517.927L816.649,518.851L813.629,521.468L809.472,523.144L791.349,523.882L785.254,525.439L776.738,529.504L761.352,539.868L749.729,541.902L749.938,544.966L753.656,542.832L751.293,548.038L748.672,549.072L748.234,543.607L744.465,543.819L745.04,539.88L741.066,540.128L739.871,537.83L743.623,534.528L743.282,531.692L740.267,531.896L734.375,536.898L732.304,537.062L739.28,529.959L739.126,525.239L736.698,525.441L730.271,529.267L730.092,533.092L726.313,533.283L719.547,536.652L714.194,540.732L708.063,543.863L702.502,539.587L699.289,538.411L694.692,534.328L690.982,535.025L688.944,532.946L684.622,532.768L681.735,535.354L678.214,530.413Z" class="land" id="AU-VIC" title="Victoria"/>
    <path d="M960.904,291.266L960.165,286.666L963.486,282.414L963.913,280.327L967.206,277.321L970.429,276.133L963.267,286.242ZM952.087,336.849L946.227,339.039L944.374,340.776L938.695,340.915L934.999,339.035L932.328,341.212L924.589,344.595L924.759,348.088L923.086,351.249L919.454,352.825L918.507,351.102L915.281,352.399L912.687,355.529L910.449,356.429L911.253,351.938L908.539,348.185L905.213,346.216L899.967,346.671L898.414,344.514L888.022,346.1L884.402,345.522L873.419,353.308L825.612,353.308L805.351,353.308L780.512,353.308L746.564,353.311L765.239,295.211L716.973,295.207L729.869,249.51L741.46,203.849L751.768,158.228L760.814,112.651L763.457,115.597L767.957,117.148L770.492,116.984L776.137,119.296L777.635,122.675L778.584,127.853L781.34,128.561L783.739,131.294L786.768,132.346L789.003,134.699L791.42,135.123L795.928,134.237L803.936,129.964L807.673,121.264L812.673,115.53L818.758,103.385L818.924,100.133L821.191,93.002L826.278,83.175L825.513,78.106L825.673,72.664L827.575,68.313L827.919,64.646L826.848,60.072L828.939,54.381L832.179,49.008L831.251,43.852L836.321,37.804L834.009,33.539L836.527,28.963L839.189,26.561L840.784,21.16L844.436,12.765L845.671,5.081L849.244,3.576L851.363,0L854.054,0.791L853.695,3.135L855.664,5.33L856.665,13.125L855.429,21.636L856.979,23.451L860.625,24.608L858.616,27.551L857.682,31.289L860.737,32.807L860.507,34.82L862.715,36.731L860.941,41.203L863.358,41.787L862.25,50.675L863.067,52.439L861.031,58.691L862.755,63.835L863.105,71.353L866.644,72.787L869.325,70.711L874.363,68.284L876.198,70.296L877.359,74.131L880.776,75.303L881.358,77.917L886.579,81.615L884.596,85.258L884.824,89.049L883.752,91.272L884.558,96.825L883.903,100.318L884.988,103.553L882.679,110.457L887.515,119.566L889.452,128.275L889.325,134.593L888.081,139.692L885.528,145.14L887.774,150.037L889.577,150.885L887.144,157.025L889.134,161.225L895.26,165.704L900.712,168.076L903.687,167.817L905.144,170.193L905.688,175.782L910.185,177.596L914.1,178.149L916.039,183.157L918.37,180.869L921.711,183.659L922.292,187.763L918.48,190.022L918.735,193.033L924.86,200.039L924.28,203.878L926.045,209.752L924.858,213.439L925.06,222.335L926.173,224.604L929.811,224.604L933.37,220.972L934.13,225.398L937.881,228.239L940.32,224.227L942.061,226.36L941.103,228.529L942.337,231.978L939.126,239.683L938.836,246.932L941.071,247.928L942.075,252.494L945.148,256.094L949.287,256.294L951.987,260.725L952.885,268.277L956.598,271.221L956.604,275.817L957.732,280.604L961.273,281.452L958.692,290.094L959.602,293.099L961.547,294.237L957.478,301.189L955.877,309.35L953.77,316.179L951.177,317.999L950.746,320.644L952.688,323.866L953.004,331.004L951.723,333.591ZM778.903,116.627L779.758,113.536L782.579,110.872L786.489,109.934L786.933,111.644L784.059,114.833ZM943.063,252.382L941.491,248.872L944.139,247.394L944.685,250.172ZM953.394,328.735L955.965,322.635L957.671,322.674Z" class="land" id="AU-QLD" title="Queensland"/>
    <path d="M711.362,635L707.253,633.825L699.419,632.718L698.287,622.826L697.089,620.298L697.087,615.825L699.267,610.113L701.894,607.586L702.954,602.941L701.773,598.636L702.712,589.126L704.55,583.655L708.764,579.762L715.854,581.195L726.302,587.982L732.285,587.879L740.709,584.517L747.812,584.688L750.693,582.157L753.558,582.92L758.275,580.106L760.385,582.081L760.525,584.887L757.782,588.181L756.855,591.388L751.06,600.575L745.055,606.362L736.784,617.832L734.747,622.782L730.114,619.916L727.889,622.82L721.524,625.771L717.635,628.729ZM764.792,571.06L764.33,565.321L763.103,563.447L767.786,560.517L770.185,565.133L768.777,569.48ZM701.715,568.409L702.407,564.398L707.261,557.779L709.159,559.307L707.167,564.434Z" class="land" id="AU-TAS" title="Tasmania"/>
  </g>
</svg>
