<?xml version="1.0" encoding="UTF-8"?>
<svg xmlns="http://www.w3.org/2000/svg" width="1271" height="635" viewBox="0 0 1271 635">
  <!-- Created using SVG Map Generator: dojo.amcharts.com/svg-map-generator -->
  <style>
    .land { fill: #b19469; stroke: #2d2d2d; stroke-width: 0.5; }
  </style>
  <g id="polygons">
    <path d="M61.524,194.695L56.837,188.36L60.144,188.614L61.857,192.447ZM85.588,122.173L80.312,123.795L79.185,132.894L76.255,134.593L76.383,137.276L73.406,140.62L76.401,146.045L77.727,151.306L79.86,153.223L77.695,157.381L78.303,166.972L82.29,169.601L81.898,177.929L82.833,182.145L85.079,185.815L84.192,191.015L78.515,187.325L76.398,188.187L73.02,187.21L70.293,182.917L69.992,175.455L68.388,168.101L63.449,166.126L60.308,161.715L58.697,156.643L56.221,155.675L51.475,146.647L48.417,144.217L47.881,142.114L45.26,140.03L38.909,140.162L34.18,136.299L31.047,131.134L28.217,127.767L23.226,124.622L18.011,118.29L9.492,109.883L6.3,104.628L2.119,95.919L2.503,94.117L0.488,90.635L0.972,86.697L0,84.337L1.519,81.451L4.886,78.853L10.147,79.527L14.098,80.944L18.35,83.58L19.015,85.648L23.673,90.112L31.435,92.568L37.923,93.065L44.446,90.769L48.902,91.039L53.003,92.257L54.213,94.47L56.774,94.492L63.699,91.715L67.028,96.176L73.228,102.835L75.18,103.355L77.078,109.463L79.77,113.92L85.788,118.091ZM36.465,184.895L33.686,184.587L32.659,182.363L25.995,177.343L19.284,174.903L15.977,171.306L15.795,169.639L18.301,165.857L20.887,166.434L24.119,170.957L27.036,171.768L30.233,175.676L36.344,179.756L37.886,183.994Z" class="land" id="ID-AC" title="Aceh"/>
    <path d="M556.486,542.365L552.821,539.924L556.217,538.046ZM527.581,519.393L538.372,522.623L542.265,521.885L547.194,518.549L554.245,521.699L557.059,523.862L560.822,529.476L557.987,532.348L551.626,534.918L545.287,539.372L539.005,531.581L535.463,529.691L529.83,529.422L526.383,523.737Z" class="land" id="ID-BA" title="Bali"/>
    <path d="M380.886,313.538L379.626,310.15L382.181,309.281L383.53,312.352ZM325.707,356.917L321.11,355.125L323.527,352.736L326.216,354.089ZM352.153,341.257L359.078,343.51L363.911,348.194L364.671,351.476L362.12,356.375L361.812,359.975L358.376,363.453L355.798,364.149L355.426,361.456L352.776,357.824L351.159,361.645L345.503,362.963L344.767,356.426L345.737,353.349L347.045,342.888ZM304.345,316.785L306.359,321.882L306.823,328.838L308.201,334.086L310.184,337.958L312.115,339.638L318.463,340.997L322.997,343.084L320.154,346.043L317.98,352.143L317.941,354.493L321.561,356.231L320.83,359.315L315.334,359.449L313.358,355.567L303.732,351.111L301.061,350.784L299.001,347.338L298.587,343.728L299.605,339.276L296.547,336.545L296.098,329.986L294.638,328.325L287.258,327.348L283.426,328.178L277.776,326.537L277.996,322.514L284.78,318.199L283.738,313.083L286.83,310.23L290.991,309.233L292.327,315.622L296.547,317.452L293.87,309.602L298.82,307.772L302.661,310.474L302.866,313.865Z" class="land" id="ID-BB" title="Kepulauan Bangka Belitung"/>
    <path d="M192.136,348.63L193.974,352.06L196.258,353.855L197.288,357.266L202.408,357.997L203.824,360.465L203.612,363.944L207.6,367.422L211.729,365.29L214.987,368.409L217.568,367.986L217.257,373.01L214.965,375.898L213.339,373.571L210.209,377.78L209.951,379.909L207.408,381.451L211.265,386.613L215.875,388.633L220.489,389.024L221.887,392.82L221.807,395.846L224.84,396.436L230.799,400.226L233.283,399.889L232.303,404.128L235.487,409.011L235.635,411.397L237.623,413.696L237.481,413.792L232.428,417.813L228.275,415.783L222.72,409.444L217.839,405.593L213.671,403.772L211.152,399.828L204.423,393.455L197.347,387.353L197.941,384.269L196.325,378.046L179.118,363.405L173.484,352.932L171.671,347.537L166.614,344.18L163.54,339.724L169.81,334.967L171.135,333.124L178.57,338.638L178.706,341.635L181.564,341.109L186.741,347.328L192.062,348.604Z" class="land" id="ID-BE" title="Bengkulu"/>
    <path d="M317.193,455.248L316.983,458.406L318.31,462.556L318.24,462.839L313.223,464.009L309.812,462.386L309.244,466.171L307.53,468.73L307.986,474.25L310.171,476.934L307.931,478.715L306.592,483.856L304.163,484.299L302.447,482.329L294.455,478.426L289.686,479.555L287.312,479.199L281.565,480.228L280.643,479.199L274.817,477.483L278.871,473.163L280.465,478.458L285.564,472.467L286.894,467.922L290.225,469L291.775,466.145L292.198,460.43L294.056,454.67L297.079,451.871L298.484,448.789L300.506,449.796L301.937,453.214L304.661,450.844L310.934,453.727L316.219,452.89Z" class="land" id="ID-BT" title="Banten"/>
    <path d="M750.818,227.355L758.308,227.974L763.789,229.814L768.942,233.884L772.045,230.326L776.137,229.644L779.862,233.612L780.255,236.067L783.205,238.734L786.451,239.385L787.838,242.055L787.733,245.949L786.001,250.453L780.169,249.757L775.148,243.664L772.113,244.638L758.616,244.042L746.998,244.533L745.233,245.757L739.819,246.453L737.441,243.34L732.73,242.754L731.579,244.706L727.14,245.292L727.302,241.635L724.474,240.936L722.747,238.901L722.905,235.795L725.145,234.439L727.529,234.971L729.534,233.368L734.751,232.682L742.446,228.951L744.034,231.4Z" class="land" id="ID-GO" title="Gorontalo"/>
    <path d="M260.136,313.295L256.71,312.824L256.068,315.523L249.222,317.218L243.174,315.936L241.531,317.584L235.353,319.231L233.577,321.03L232.722,329.572L230.964,330.098L230.355,334.967L227.677,332.72L225.032,328.598L223.033,331.746L224.344,334.368L221.86,335.49L214.957,334.14L214.168,338.263L212.416,341.561L208.026,344.033L206.682,346.206L201.826,346.206L200.113,344.632L197.072,344.482L196.249,346.655L192.961,348.905L192.062,348.604L186.741,347.328L181.564,341.109L178.706,341.635L178.57,338.638L171.135,333.124L171.288,329.104L169.848,324.61L166.975,320.61L166.743,313.817L169.425,315.019L177.019,313.817L178.958,310.474L182.206,308.172L183.225,306.095L182.622,300.726L186.145,298.918L187.488,297.001L186.265,291.382L191.149,288.18L196.83,290.401L200.218,290.764L204.434,294.549L208.983,295.822L211.387,294.44L213.175,291.347L216.563,288.542L219.33,284.215L222.573,283.959L228.354,285.122L232.234,284.616L237.002,289.51L242.198,292.434L245.462,291.469L252.742,294.254L256.931,292.982L258.104,296.232L257.577,298.912L259.078,302.624L258.726,308.236Z" class="land" id="ID-JA" title="Jambi"/>
    <path d="M374.339,476.177L374.07,478.904L371.925,481.755L372.248,487.615L369.884,489.267L366.268,489.719L366.326,495.641L368.199,495.474L369.892,498.335L371.647,506.021L365.551,506.442L363.104,509.627L358.632,510.663L345.206,508.081L341.016,505.816L338.737,502.849L332.749,500.363L325.505,499.031L310.457,497.8L306.139,495.66L305.624,492.218L310.602,485.867L309.841,483.234L306.592,483.856L307.931,478.715L310.171,476.934L307.986,474.25L307.53,468.73L309.244,466.171L309.812,462.386L313.223,464.009L318.24,462.839L318.307,462.566L321.944,464.349L323.816,458.952L324.098,455.273L325.831,449.607L329.659,451.951L333.233,451.021L335.982,453.246L337.724,457.066L341.929,458.455L343.21,460.202L347.211,458.317L353.082,462.133L355.599,463.044L357.905,460.318L362.315,460.799L362.67,463.663L366.744,467.935L367.046,474.644L367.961,476.78L372.013,478.493Z" class="land" id="ID-JB" title="Jawa Barat"/>
    <path d="M517.089,480.703L519.789,482.387L517.829,484.732L513.39,486.692L513.375,488.757L507.689,487.952L505.41,488.687L503.877,491.801L496.366,491.346L491.358,491.801L482.668,489.492L480.266,489.319L479.945,486.307L483.362,483.821L484.409,481.547L489.783,480.53L492.386,480.915L510.598,480.774L514.745,480.074ZM552.775,478.984L556.293,479.273L557.629,482.14L555.602,484.032L552.25,484.69L550.238,482.535ZM428.549,523.534L430.221,518.635L432.189,519.239L435.26,517.397L437.072,513.907L438.694,514.757L440.679,511.76L439.925,509.342L437.379,507.115L436.153,497.896L437.538,492.648L444.571,495.561L445.55,492.921L448.237,491.628L450.606,487.965L451.309,478.923L453.552,476.556L456.86,477.948L461.234,476.902L463.432,480.973L468.01,480.315L477.948,480.918L479.381,484.963L478.465,488.27L479.526,491.522L482.148,490.701L484.28,493.562L483.517,500.882L484.744,504.161L489.024,505.412L492.286,508.321L495.351,509.573L501.589,506.878L508.348,508.094L511.257,506.297L513.231,506.865L516.509,504.055L518.134,507.048L525.695,508.799L527.843,511.064L526.377,514.032L526.343,518.504L524.746,522.62L522.962,530.599L523.061,533.375L525.514,537.01L528.764,537.713L529.066,540.806L524.815,540.588L522.239,536.766L518.96,537.241L505.691,533.189L503.136,530.802L498.657,528.591L496.681,529.364L494.159,525.95L491.33,525.405L486.984,526.236L483.759,529.255L477.867,530.176L470.581,529.233L466.734,527.17L459.903,526.846L452.408,525.091L449.229,528.058L437.974,524.584L435.092,525.431ZM483.286,443.754L482.602,447.75L479.991,447.727L480.098,445.101Z" class="land" id="ID-JI" title="Jawa Timur"/>
    <path d="M324.098,455.273L323.816,458.952L321.944,464.349L318.307,462.566L318.31,462.556L316.983,458.406L317.193,455.248L320.65,456.21Z" class="land" id="ID-JK" title="Jakarta Raya"/>
    <path d="M453.552,476.556L451.309,478.923L450.606,487.965L448.237,491.628L445.55,492.921L444.571,495.561L437.538,492.648L436.153,497.896L437.379,507.115L439.925,509.342L440.679,511.76L438.694,514.757L437.072,513.907L435.26,517.397L432.189,519.239L430.221,518.635L428.549,523.534L426.689,522.989L425.428,521.321L424.898,516.974L426.213,510.721L423.116,509.707L420.699,510.301L418.31,509.075L417.51,501.883L413.455,505.348L408.407,505.386L408.237,508.334L404.578,512.989L396.304,510.015L391.035,509.034L388.039,507.619L380.209,506.422L378.067,509.579L372.235,508.087L371.647,506.021L369.892,498.335L368.199,495.474L366.326,495.641L366.268,489.719L369.884,489.267L372.248,487.615L371.925,481.755L374.07,478.904L374.339,476.177L377.656,478.91L380.855,476.665L381.964,479.459L385.988,480.325L390.499,479.597L393.376,477.345L394.793,479.231L403.003,481.778L406.644,481.823L412.463,479.869L416.604,483.054L419.64,481.8L424.577,473.663L425.015,470.241L427.198,466.716L430.323,465.513L436.135,466.014L438.395,473.329L444.771,474.875L448.221,472.332L450.372,473.082Z" class="land" id="ID-JT" title="Jawa Tengah"/>
    <path d="M260.232,270.929L263.331,275.442L256.367,281.417L255.599,277.269L253.713,275.58ZM268.663,266.515L269.849,264.464L272.247,268.977L270.193,270.256L266.219,266.653L261.446,268.842L258.689,267.563L260.861,264.191L260.589,259.947L263.545,260.223ZM254.316,234.711L255.177,237.256L253.715,239.5L251.602,235.397ZM232.365,231.496L233.164,235.74L232.802,239.705L230.434,239.295L228.943,236.798L228.625,233.445L231.136,229.137ZM243.169,225.454L244.448,227.554L246.428,228.785L245.225,231.246L242.172,228.692ZM250.755,223.313L250.513,226.871L247.649,228.602L244.245,226.871L247.234,221.944ZM262.69,222.31L264.896,226.595L264.523,234.301L261.168,233.529L258.061,229.24L258.941,226.14L253.795,228.009L252.551,225.454L255.318,222.172L257.872,221.489ZM293.962,169.091L292.926,168.633L292.703,161.914L296.845,164.565ZM364.42,142.182L360.787,143.076L358.399,141.563L361.257,138.302L357.327,136.523L355.201,130.999L360.268,125.478L366.492,132.515L366.555,137.315Z" class="land" id="ID-KR" title="Kepulauan Riau"/>
    <path d="M400.052,292.011L402.594,291.565L403.317,292.453L405.025,291.661L406.254,293.094L406.758,296.617L398.679,302.002L395.905,300.348L397.102,298.255L397.746,293.35ZM402.698,193.605L400.169,200.214L403.738,203.18L403.615,208.369L408.5,214.434L411.754,215.453L412.065,218.046L415.729,221.701L417.853,221.838L420.832,227.951L423.959,228.416L425.421,230.964L429.955,232.17L436.541,229.378L437.966,227.249L447.235,225.259L451.378,227.48L454.536,227.108L455.678,229.288L458.815,226.602L464.515,227.852L467.159,223.823L472.319,223.406L473.575,214.328L477.066,211.825L482.198,209.417L490.385,210.623L492.725,209.142L497.383,210.206L498.395,213.911L500.819,215.671L504.622,215.764L507.542,218.726L512.019,218.264L513.247,220.765L518.422,218.264L518.757,215.995L522.449,213.677L527.325,213.078L529.229,214.809L527.885,215.614L526.755,223.092L523.456,223.432L520.314,230.628L521.692,232.82L519.547,238.721L514.442,245.76L508.143,251.52L503.693,252.485L507.821,255.886L508.46,262.143L507.601,265.089L504.324,267.579L502.01,270.903L503.561,273.669L501.794,275.98L499.717,274.583L496.027,275.724L485.024,281.965L480.329,281.587L476.937,283.465L473.845,279.734L472.111,283.337L468.847,282.878L469.223,285.545L465.686,286.51L463.802,289.324L460.948,289.706L457.658,292.065L456.408,294.527L456.343,298.713L452.144,299.601L448.256,305.563L446.482,305.156L440.757,310.054L436.493,312.237L437.922,315.055L440.721,316.965L439.488,322.549L442.517,323.741L441.282,326.636L442.331,329.043L440.962,331.784L442.016,333.89L443.625,343.578L443.672,348.12L439.862,349.643L438.584,351.672L432.838,354.237L432.246,355.981L427.233,351.044L423.368,352.849L420.171,355.836L418.378,352.352L418.311,348.011L417.21,342.731L417.659,340.385L416.141,333.297L415.01,331.672L415.985,325.613L414.922,322.254L411.181,320.01L410.278,316.894L413.586,313.192L414.713,306.977L414.108,302.053L410.4,298.694L411.255,296.088L408.185,294.911L406.34,291.902L405.266,291.129L404.083,292.046L402.277,290.655L401.157,288.741L396.75,287.437L396.226,289.917L393.472,288.85L391.872,286.132L392.222,281.285L395.355,282.834L395.55,278.74L392.636,279.042L388.792,276.397L386.553,267.977L389.673,261.79L390.283,258.793L388.614,253.072L386.847,250.918L383.559,250.373L383.861,246.01L382.71,244.449L383.443,240.491L381.009,234.016L384.218,230.804L384.824,228.676L382.555,222.704L386.02,217.771L386.787,210.988L391.472,207.193L394.163,201.429L393.794,198.346L398.076,196.313L400.784,196.252Z" class="land" id="ID-KB" title="Kalimantan Barat"/>
    <path d="M633.057,181.003L636.664,186.216L635.707,188.732L630.485,194.679L630.43,198.74L632.001,201.548L638.092,207.234L646.068,212.639L646.947,215.165L650.984,216.46L656.015,221.422L657.836,224.804L662.449,226.688L660.538,231.24L656.681,234.346L653.4,232.923L648.65,233.439L639.238,231.881L635.474,229.172L634.373,225.804L631.572,224.993L635.479,232.634L634.118,234.66L631.975,233.154L627.535,236.288L626.957,239.433L624.25,246.004L621.516,250.463L620.004,256.678L621.704,261.05L619.108,267.701L620.088,270.977L619.335,276.791L623.472,273.676L624.64,274.083L622.904,280.789L624.007,285.308L619.517,287.629L614.082,287.824L610.91,292.213L607.568,298.444L601.736,300.832L599.998,303.832L593.954,307.236L593.904,312.07L585.076,317.023L586.097,318.09L589.499,316.609L591.211,317.157L591.41,325.549L590.71,328.226L595.364,330.194L593.902,337.397L590.055,335.724L585.735,335.66L578.708,334.477L574.916,336.25L572.65,330.46L573.58,326.578L571.043,325.392L571.194,316.84L566.321,308.153L572.203,302.034L573.645,295.69L570.067,293.895L569.39,291.575L565.082,286.904L562.396,286.337L561.398,278.695L558.468,274.474L557.917,269.538L559.894,260.97L556.013,263.156L552.826,266.057L549.748,265.967L548.666,258.633L545.753,256.723L546.215,254.296L549.775,249.328L553.115,249.78L555.025,248.222L554.365,245.11L551.752,240.141L550.639,235.824L542.201,237.34L538.411,241.702L534.386,243.725L529.911,242.94L528.056,241.196L528.04,238.385L519.547,238.721L521.692,232.82L520.314,230.628L523.456,223.432L526.755,223.092L527.885,215.614L529.229,214.809L534.679,211.28L538.848,214.091L539.807,213.081L542.503,215.665L545.066,216.524L547.011,220.531L550.302,220.245L551.735,223.008L554.934,221.675L559.228,222.342L564.214,218.813L565.24,215.094L568.372,215.19L572.058,213.568L575.767,213.476L577.393,211.854L582.138,204.225L584.122,199.65L584.454,195.169L587.609,192.117L588.124,185.158L591.607,178.962L595.315,182.488L607.605,176.099L611.985,176.577L615.919,175.814L616.796,177.91L620.72,180.103L622.437,179.625L625.064,182.773L627.891,183.821Z" class="land" id="ID-KI" title="Kalimantan Timur"/>
    <path d="M588.192,376.45L586.257,373.507L587.404,370.439L589.479,370.24ZM580.2,389.38L578.448,389.582L579.232,382.038L577.604,376.976L580.977,366.627L585.003,363.357L585.012,373.314L586.076,380.723L585.53,385.247ZM572.203,302.034L566.321,308.153L571.194,316.84L571.043,325.392L573.58,326.578L572.65,330.46L574.916,336.25L578.708,334.477L585.735,335.66L590.055,335.724L593.902,337.397L592.335,342.119L590.087,339.965L586.895,340.712L586.745,343.738L588.321,345.434L588.497,351.22L583.768,358.907L577.91,370.003L577.153,374.562L572.939,376.379L569.958,379.191L557.333,384.795L547.234,389.62L541.01,393.859L538.288,392.361L538.759,378.748L538.119,375.879L535.463,372.147L531.876,370.673L533.312,364.575L535.766,360.305L536.51,356.09L539.105,350.499L544.439,346.354L545.033,342.994L548.246,338.82L557.857,330.855L560.029,327.367L558.962,323.748L560.947,320.853L559.749,317.696L562.479,306.31L570.016,304.076Z" class="land" id="ID-KS" title="Kalimantan Selatan"/>
    <path d="M432.246,355.981L432.838,354.237L438.584,351.672L439.862,349.643L443.672,348.12L443.625,343.578L442.016,333.89L440.962,331.784L442.331,329.043L441.282,326.636L442.517,323.741L439.488,322.549L440.721,316.965L437.922,315.055L436.493,312.237L440.757,310.054L446.482,305.156L448.256,305.563L452.144,299.601L456.343,298.713L456.408,294.527L457.658,292.065L460.948,289.706L463.802,289.324L465.686,286.51L469.223,285.545L468.847,282.878L472.111,283.337L473.845,279.734L476.937,283.465L480.329,281.587L485.024,281.965L496.027,275.724L499.717,274.583L501.794,275.98L503.561,273.669L502.01,270.903L504.324,267.579L507.601,265.089L508.46,262.143L507.821,255.886L503.693,252.485L508.143,251.52L514.442,245.76L519.547,238.721L528.04,238.385L528.056,241.196L529.911,242.94L534.386,243.725L538.411,241.702L542.201,237.34L550.639,235.824L551.752,240.141L554.365,245.11L555.025,248.222L553.115,249.78L549.775,249.328L546.215,254.296L545.753,256.723L548.666,258.633L549.748,265.967L552.826,266.057L556.013,263.156L559.894,260.97L557.917,269.538L558.468,274.474L561.398,278.695L562.396,286.337L565.082,286.904L569.39,291.575L570.067,293.895L573.645,295.69L572.203,302.034L570.016,304.076L562.479,306.31L559.749,317.696L560.947,320.853L558.962,323.748L560.029,327.367L557.857,330.855L548.246,338.82L545.033,342.994L544.439,346.354L539.105,350.499L536.51,356.09L535.766,360.305L533.312,364.575L531.876,370.673L528.06,368.531L523.168,367.768L517.306,370.965L513.054,371.426L511.389,370.221L512.455,364.383L511.539,361.696L507.917,361.95L504.81,364.527L501.536,362.039L496.712,355.968L493.449,358.814L493.388,362.806L484.884,369.477L481.531,370.42L478.45,367.499L475.396,366.252L471.381,367.259L465.277,373.815L461.34,373.439L462.513,369.192L461.952,362.389L462.49,357.5L460.43,352.977L454.434,355.9L451.864,353.345L448.801,353.224L443.835,356.477L437.907,358.391L434.485,355.525Z" class="land" id="ID-KT" title="Kalimantan Tengah"/>
    <path d="M623.829,154.723L620.846,153.639L620.267,150.145L624.19,150.975ZM624.592,132.031L621.398,130.941L623.109,127.408L625.189,129.29ZM628.791,125.872L630.312,129.963L627.644,130.342L621.809,125.1L623.28,123.25ZM568.155,128.55L570.419,123.939L573.236,122.301L573.091,119.585L576.938,120.845L578.663,123.08L581.276,119.406L586.453,119.486L588.763,122.461L592.055,118.966L593.8,121.163L599.676,121.284L601.577,120.146L607.06,121.143L610.996,119.963L615.985,123.958L616.685,125.558L620.843,126.312L617.607,129.335L624.445,136.048L627.964,141.255L626.123,143.345L619.374,144.153L615.072,143.448L610.78,145.756L614.237,149.863L617.542,149.975L618.351,158.775L622.748,160.984L624.808,164.86L624.48,170.21L627.788,172.063L628.48,175.89L633.057,181.003L627.891,183.821L625.064,182.773L622.437,179.625L620.72,180.103L616.796,177.91L615.919,175.814L611.985,176.577L607.605,176.099L595.315,182.488L591.607,178.962L588.124,185.158L587.609,192.117L584.454,195.169L584.122,199.65L582.138,204.225L577.393,211.854L575.767,213.476L572.058,213.568L568.372,215.19L565.24,215.094L564.214,218.813L559.228,222.342L554.934,221.675L551.735,223.008L550.302,220.245L547.011,220.531L545.066,216.524L542.503,215.665L539.807,213.081L540.437,209.594L543.114,206.446L543.08,202.394L544.4,200.118L547.614,198.548L548.113,195.634L545.718,194.563L545.532,187.899L548.475,187.53L549.211,185.389L554.294,181.003L557.494,179.196L553.921,173.772L555.371,165.895L557.865,163.92L561.429,164.186L564.334,162.478L565.256,151.652L567.037,147.567L565.816,143.047L565.991,138.854L568.153,128.861Z" class="land" id="ID-KU" title="Kalimantan Utara"/>
    <path d="M237.703,413.641L242.592,417.332L247.097,417.681L249.586,415.837L252.615,416.485L253.848,414.738L251.877,410.149L253.443,407.507L253.16,402.474L256.409,397.934L260.389,396.189L265.983,396.388L274.013,392.102L276.454,386.164L279.197,385.266L282.131,379.781L284.583,382.625L288.998,385.866L291.788,392.499L295.154,393.317L294.675,398.344L296.839,402.829L295.194,414.635L296.146,417.389L294.883,421.288L294.838,427.987L293.483,430.578L293.308,438.941L292.205,445.075L289.56,447.493L286.922,447.08L286.38,443.626L280.949,439.268L278.882,434.746L275.963,438.796L274.197,446.162L268.983,443.151L264.329,439.608L262.018,436.763L259.481,436.225L258.1,439.268L260.584,442.968L262.218,450.203L258.233,450.45L257.86,447.984L254.053,443.052L250.931,440.871L250.099,437.879L245.55,434.006L243.323,430.834L240.346,423.815L235.391,418.993L232.428,417.813L237.481,413.792Z" class="land" id="ID-LA" title="Lampung"/>
    <path d="M918.972,376.225L916.195,379.944L915.134,376.751L909.114,380.986L907.301,378.354L910.585,375.222L914.966,374.251L917.425,371.949L919.408,373.244ZM882.364,360.812L885.278,363.011L883.81,366.765L889.5,368.265L888.565,375.959L882.351,378.639L878.125,381.204L873.249,382.929L864.79,378.925L861.03,375.895L855.759,369.846L855.043,362.072L857.523,359.472L860.691,361.7L862.732,359.593L866.443,358.465L875.346,358.064ZM960.212,353.211L966.326,356.073L975.152,355.477L981.942,360.661L983.937,369.23L987.199,369.538L989.322,375.174L988.152,377.905L987.75,384.144L981.939,381.438L976.1,376.466L968.891,373.593L965.022,371.25L964.191,368.294L962.332,366.887L952.056,365.7L953.105,369.945L951.909,371.231L944.431,369.397L940.685,367.39L936.063,367.621L937.082,364.024L934.609,362.876L931.462,365.12L926.899,370.153L923.661,370.965L921.14,369.64L918.482,364.784L916.189,362.94L915.339,358.539L912.945,360.042L911.195,367.012L908.144,367.214L906.2,362.148L909.834,358.949L915.273,351.576L926.168,351.531L934.089,351.864L940.241,350.73L941.792,354.984L944.019,354.445L949.441,349.511L952.865,349.226L959.544,352.13ZM896.759,519.746L899.598,520.949L903.755,520.949L901.33,525.084L896.11,523.018ZM977.847,527.802L979.602,524.298L984.893,519.223L987.693,521.857L982.458,524.102ZM950.007,518.44L948.048,517.878L945.354,513.544L946.256,510.211L952.092,510.824L953.003,514.067ZM866.803,505.97L868.577,508.472L863.546,509.515L857.825,514.327L849.697,512.803L844.351,513.737L840.526,517.051L841.295,511.76L846.19,505.55L851.936,507.564L856.233,506.708L858.374,504.722L864.279,502.547ZM885.501,505.309L885.082,500.975L888.303,501.562ZM1006.707,491.121L1003.851,492.5L1004.346,499.865L1002.615,504.607L1000.82,507.009L995.765,511.048L992.51,517.413L987.231,516.454L986.914,512.2L990.3,506.397L992.106,500.173L996.512,496.382L1001.195,489.177L1004.554,488.148ZM921.426,491.105L918.336,489.675L920.756,486.486L922.876,487.901ZM1096.113,463.615L1092.302,472.746L1088.809,477.22L1089.077,467.537L1095.106,461.344ZM1038.161,450.293L1035.223,449.465L1035.326,443.167L1036.744,439.447L1039.256,445.858ZM1092.8,442.151L1094.335,448.083L1090.264,451.393L1093.308,455.007L1092.442,459.298L1090.653,463.098L1087.384,464.506L1088.473,467.88L1080.395,477.38L1079.376,479.77L1074.723,481.941L1071.632,477.281L1072.861,473.419L1074.815,463.602L1074.324,457.534L1075.343,453.243L1080.032,453.49L1081.709,442.824L1083.882,440.987L1086.343,437.004L1086.295,434.246L1088.167,431.12L1089.752,431.181L1092.485,436.879ZM1043.29,448.045L1039.846,451.781L1042.989,442.491L1044.613,440.342L1048.765,429.975L1050.796,431.107L1048.164,439.258L1043.758,444.37ZM924.18,375.943L920.832,376.706L921.139,373.555L923.949,373.048Z" class="land" id="ID-MA" title="Maluku"/>
    <path d="M857.372,339.33L855.706,338.933L852.753,331.021L851.861,326.402L853.611,323.193L855.784,324.623L854.825,329.29L857.89,337.615ZM840.269,317.888L846.298,318.478L849.284,317.568L855.6,317.34L865.563,318.334L862.859,320.171L855.307,321.151L841.047,322.184L837.785,320.376ZM827.019,314.522L831.553,314.228L836.296,315.558L837.018,320.497L829.683,320.61L828.098,322.347L824.113,320.808L819.555,323.132L814.876,324.517L811.597,324.623L809.547,320.34L811.521,313.301L818.191,312.416ZM908.174,305.736L914.503,310.064L915.82,312.67L912.998,315.051L903.242,314.147L898.721,315.843L894.187,312.372L894.968,307.544L901.269,302.643ZM892.857,285.468L888.505,285.042L889.298,280.33L891.085,279.872ZM899.967,270.301L903.06,274.993L900.899,280.442L902.045,282.574L905.883,282.116L908.764,285.892L904.901,288.481L900.816,284.664L897.411,286.34L896.164,284.946L895.224,279.962L892.481,276.564L892.991,270.996L895.531,271.769ZM889.165,276.952L887.062,276.006L887.055,269.438L890.669,268.252L891.897,272.214L891.138,275.948ZM907.735,202.093L911.717,205.036L912.507,211.267L911.267,216.832L909.063,221.444L902.043,227.416L902.215,231.756L904.922,233.981L907.402,234.282L909.407,232.5L909.691,228.256L912.692,224.188L915.35,224.243L917.016,221.787L915.186,218.79L916.755,215.828L921.858,211.668L926.655,209.808L931.528,210.094L930.976,224.678L924.047,230.054L919.987,231.426L917.631,234.179L918.317,236.583L921.448,239.253L928.076,242.036L930.483,242.279L931.818,249.443L926.897,249.745L924.372,247.273L919.583,247.632L916.26,245.542L910.634,244.728L909.224,246.055L908.484,250.398L909.737,255.533L908.685,260.172L912.845,272.929L917.679,282.433L922.853,288.469L919.541,288.27L915.588,284.173L912.355,282.218L907.919,272.147L904.048,269.615L902.528,266.893L903.558,257.893L902.309,249.132L899.934,246.812L898.689,242.494L899.169,237.067L901.046,232.663L898.066,231.641L897.359,226.207L894.901,225.97L895.015,221.137L898.379,213.838L899.391,204.25L902.698,198.301L909.605,189.748L912.221,191.803L909.089,197.278L907.25,198.576ZM924.957,194.287L918.848,195.336L917.92,192.685L917.41,186.078L918.978,182.497L922.777,177.583L926.683,175.724L930.106,181.991L928.218,188.989Z" class="land" id="ID-MU" title="Maluku Utara"/>
    <path d="M588.907,528.241L586.463,534.934L581.725,542.208L582.988,545.266L578.378,547.028L572.102,544.339L568.379,544.525L563.67,543.135L562.947,541.236L568.35,540.495L569.796,539.381L570.428,533.5L569.463,531.065L571.891,528.055L576.518,524.439L579.236,523.329L586.686,525.553ZM613.47,521.439L613.949,523.859L611.09,529.024L610.289,522.572ZM653.982,524.741L652.152,524.009L653.686,520.641L655.667,522.521ZM623.629,519.842L628.784,520.766L629.112,524.24L632.504,528.273L637.189,524.475L642.501,525.909L643.684,529.107L646.847,525.447L651.912,526.467L652.89,531.19L651.671,534.478L652.035,537.071L654.671,536.712L654.433,540.556L650.014,540.463L643.771,539.304L643.464,541.111L647.852,541.066L646.359,543.658L643.138,542.131L635.69,544.91L633.771,544.031L633.086,538.627L627.873,543.983L625.119,543.565L619.167,546.81L618.005,545.465L614.12,546.161L606.169,550.147L599.937,549.361L595.493,551.953L588.888,549.45L587.304,547.641L588.091,544.396L590.211,542.866L589.115,537.77L591.838,533.647L594.396,533.182L600.84,528.366L607.203,531.607L608.368,529.987L611.979,529.614L615.04,532.72L617.355,539.577L622.339,540.039L624.877,537.815L628.724,538.05L631.125,535.499L626.796,532.348L623.405,531.376L619.01,527.946L616.296,523.871L616.959,522.017L622.848,519.101Z" class="land" id="ID-NB" title="Nusa Tenggara Barat"/>
    <path d="M766.737,596.589L764.811,602.685L762.01,604.406L760.936,607.26L754.272,608.396L753.201,610.746L749.669,610.384L749.731,605.712L756.301,603.972L763.093,597.465ZM727.322,594.675L728.101,597.635L724.314,600.54L719.351,599.195ZM769.938,585.87L766.91,590.605L764.95,589.299L767.961,585.068ZM677.137,561.087L679.653,564.103L682.24,565.018L682.27,568.105L684.421,569.935L688.763,568.426L692.022,571.809L693.84,577.474L696.967,579.258L697.492,583.964L694.373,586.936L689.566,588.307L686.594,590.547L684.103,588.763L679.973,588.811L676.684,586.342L673.385,580.263L666.915,575.888L666.309,573.972L660.95,572.46L658.871,574.107L656.452,572.688L649.839,571.141L646.445,566.16L649.77,562.412L654.067,560.538L663.672,560.766L666.671,559.761L670.777,561.452L675.182,557.476ZM814.17,547.236L815.593,550.612L818.877,547.544L820.756,549.415L820.196,554.01L815.188,554.139L814.738,557.897L816.167,559.122L816.829,563.4L813.884,566.183L813.317,569.212L809.639,571.924L805.813,577.223L800.061,581.178L798.764,583.733L794.587,586.208L789.187,585.671L784.563,589.462L780.474,591.263L773.159,592.579L771.317,591.238L771.501,586.477L777.587,583.842L776.708,581.098L773.516,581.582L773.824,578.247L776.187,576.485L777.163,568.965L780.921,565.008L783.616,563.471L786.96,559.61L788.355,559.501L789.556,561.69L793.242,560.454L796.337,564.142L797.362,560.666L799.988,558.218L800.8,554.283L804.331,553.77L810.108,549.059ZM664.618,531L666.6,532.476L666.688,535.386L664.776,536.372L662.956,540.62L661.414,539.221L661.536,535.367ZM766.547,530.243L761.33,532.964L761.376,530.522ZM768.472,524.128L770.898,526.015L770.299,528.998L762.183,529.685L763.342,526.384L766.537,524.019ZM797.179,527.757L795.271,531.677L791.277,534.231L790.713,530.038L788.9,527.709L791.646,525.995L793.265,527.856L797.201,522.822L798.52,526.541ZM785.942,523.194L780.775,530.189L779.381,529.518L773.382,535.075L767.572,533.734L771.307,529.393L775.29,527.458L784.513,521.879ZM804.868,520.39L806.689,522.46L811.186,521.241L815.591,521.789L820.711,521.273L821.426,526.897L819.268,527.962L814.461,528.174L811.854,529.297L807.969,529.117L801.43,531.244L799.43,528.873L801.124,526.775L801.256,523.733ZM760.948,519.906L763.023,526.457L759.962,527.214L757.02,535.476L752.34,536.551L745.029,540.453L736.081,540.222L734.289,542.022L725.878,544.599L721.868,542.208L716.704,541.897L714.223,545.741L710.519,544.99L706.331,547.227L703.384,546.283L701.717,543.424L698.607,545.183L694.594,542.686L688.807,542.744L686.745,543.906L682.338,541.672L678.684,542.802L673.773,542.401L672.827,541.011L673.412,535.085L679.939,528.86L686.672,525.665L692.706,525.998L697.352,525.331L699.797,527.599L706.584,527.622L707.691,529.839L715.208,532.001L716.221,534.244L720.625,536.227L723.175,533.574L726.829,532.335L731.834,532.393L737.069,533.458L740.278,536.522L747.016,536.025L751.135,529.095L755.728,528.18L759.513,525.472L757.512,522.832L756.912,519.941L759.309,518.568Z" class="land" id="ID-NT" title="Nusa Tenggara Timur"/>
    <path d="M1200.864,529.736L1192.475,528.565L1191.86,526.797L1196.624,522.383L1199.429,521.488L1201.65,528.212ZM1193.535,524.693L1189.026,528.626L1184.65,530.182L1182.351,529.152L1172.9,528.408L1166.54,530.461L1166.407,528.729L1169.701,520.923L1175.57,509.951L1180.093,503.417L1185.181,499.535L1189.23,497.752L1197.007,496.106L1202.139,497.334L1204.434,501.838L1207.332,504.116L1205.374,509.107L1203.19,512.607L1201.875,517.66L1198.829,520.974L1195.579,521.783ZM1141.158,314.125L1145.715,315.183L1155.252,316.013L1157.213,318.436L1147.932,321.02L1138.973,320.081L1132.573,318.302L1129.546,316.25L1123.858,314.436L1118.72,313.952L1117.033,311.567L1138.118,313.224ZM1098.992,397.344L1103.579,391.419L1106.565,385.821L1110.443,380.528L1097.082,374.78L1086.893,371.301L1081.632,368.73L1083.626,364.04L1087.948,359.956L1088.458,356.327L1090.991,354.814L1095.097,350.576L1096.648,355.875L1100.474,354.381L1098.934,360.135L1100.57,364.142L1103.746,366.951L1113.051,368.781L1116.633,368.009L1119.308,365.941L1121.618,361.995L1125.368,359.892L1125.361,357.846L1129.393,355.856L1130.928,349.303L1132.973,346.581L1139.42,342.574L1142.024,335.862L1141.866,333.163L1144.005,331.079L1147.424,330.973L1151.133,332.352L1153.526,332.114L1162.301,327.643L1165.663,327.444L1167.022,325.94L1166.068,322.578L1163.652,320.081L1164.005,317.792L1174.319,312.404L1177.553,310.003L1184.281,307.259L1186.648,307.74L1190.171,311.509L1199.874,315.532L1206.54,317.401L1211.631,322.629L1217.22,324.097L1227.098,329.431L1237.284,335.692L1240.141,336.173L1247.881,334.579L1249.187,337.16L1252.198,338.798L1253.855,337.971L1260.761,338.763L1265.954,343.651L1271,343.786L1268.62,403.4L1264.988,463.028L1262.556,466.812L1262.972,468.387L1260.331,472.601L1260.179,477.573L1262.054,481.332L1263.648,481.001L1257.185,552.708L1252.893,550.076L1247.253,542.259L1244.891,536.782L1238.021,529.281L1233.507,525.129L1231.663,522.171L1236.742,514.551L1234.561,514.157L1233.816,518.247L1230.21,520.182L1222.022,520.512L1219.353,522.187L1213.657,522.973L1211.016,519.364L1207.161,520.994L1201.896,526.072L1200.356,520.673L1202.488,517.695L1203.027,513.708L1205.393,512.251L1208.429,501.63L1204.895,499.294L1203.263,495.221L1198.258,491.612L1198.435,490.611L1205.6,490.929L1200.7,487.917L1196.447,483.186L1197.105,480.52L1201.02,481.133L1205.097,478.836L1199.807,475.462L1199.933,471.88L1194.966,465.876L1192.855,459.843L1192.459,455.604L1190.823,451.479L1191.104,447.721L1185.102,443.735L1184.676,435.035L1182.31,433.983L1174.781,427.464L1167.98,423.677L1164.308,419.865L1162.655,420.689L1157.023,418.816L1152.06,418.053L1139.663,410.124L1136.849,410.159L1130.826,407.254L1128.011,404.208L1122.354,404.298L1114.188,402.22L1108.791,403.185ZM1119.008,281.542L1124.318,282.074L1126.894,284.071L1130.366,283.257L1135.185,288.02L1138.696,294.046L1143.441,295.072L1140.609,298.434L1135.97,299.13L1134.592,297.918L1130.069,298.002L1128.674,296.376L1127.558,288.76L1125.874,286.366L1122.958,287.975L1120.113,285.141L1116.912,283.802Z" class="land" id="ID-PA" title="Papua"/>
    <path d="M1103.44,296.479L1100.113,293.357L1101.252,290.238L1105.416,292.882ZM971.872,326.152L969.903,326.226L964.158,324.232L959.369,321.312L959.817,319.517L967.815,315.817L976.508,313.856L978.686,318.51L978.689,323.296ZM992.055,288.571L995.798,289.235L996.771,294.742L994.583,302.781L991.2,302.98L987.967,299.822L985.514,290.805ZM992.574,285.353L989.203,288.09L983.29,289.248L980.633,286.773L987.321,286.549L990.473,284.696ZM984.012,277.343L980.114,276.836L980.527,274.445L984.255,273.147L986.471,274.993ZM1095.097,350.576L1090.991,354.814L1088.458,356.327L1087.948,359.956L1083.626,364.04L1081.632,368.73L1086.893,371.301L1097.082,374.78L1110.443,380.528L1106.565,385.821L1103.579,391.419L1098.992,397.344L1093.074,392.246L1094.363,386.594L1089.763,389.069L1087.467,385.452L1085.631,384.926L1083.732,388.572L1080.002,384.795L1080.918,382.734L1079.196,380.281L1076.341,381.97L1073.605,380.217L1071.252,375.046L1069.652,377.873L1067.74,376.424L1066.129,372.388L1067.577,369.858L1068.405,362.344L1072.6,358.811L1071.856,354.935L1066.968,360.546L1066.217,369.342L1063.414,370.929L1064.44,374.382L1059.073,379.646L1060.335,384.032L1054.14,390.672L1048.921,390.213L1045.103,391.361L1043.433,388.543L1041.139,379.191L1042.14,376.45L1046.223,373.946L1043.456,370.679L1042.93,365.034L1039.197,366.598L1036.467,359.914L1029.96,354.605L1026.496,354.205L1023.424,355.118L1020.178,349.335L1027.22,345.87L1035.61,346.549L1041.361,350.303L1044.762,347.524L1049.853,340.032L1052.306,338.407L1056.208,337.49L1059.998,340.834L1063.292,342.244L1066.047,341.372L1068.038,342.908L1070.997,339.529L1074.752,336.593L1075.792,329.588L1073.9,327.768L1067.432,331.71L1061.685,331.768L1057.816,330.553L1048.502,333.342L1044.483,332.053L1040.898,333.999L1037.79,330.194L1032.709,332.441L1030.098,332.714L1023.091,326.854L1020.184,320.129L1020.989,314.747L1018.971,312.638L1014.587,310.705L1010.972,307.788L1003.797,306.111L1002.573,308.028L995.989,306.64L993.637,304.973L996.368,299.857L999.683,299.069L1001.667,295.158L1002.761,289.437L1001.941,286.372L1009.108,283.536L1010.888,284.439L1019.084,282.241L1020.355,279.962L1025.593,274.952L1030.132,272.314L1034.693,271.038L1042.421,271.765L1053.522,277.215L1055.137,277.388L1060.679,283.058L1066.229,284.164L1071.232,283.205L1077.495,283.398L1081.061,286.773L1078.759,290.991L1081.39,296.937L1083.523,299.159L1085.554,303.611L1084.266,305.227L1083.812,309.913L1080.066,313.782L1081.486,321.988L1081.065,325.761L1081.603,334.349L1083.265,337.84L1085.89,340.295L1089.52,351.717L1091.304,350.896L1090.042,342.033L1092.015,339.163L1094.798,340.827ZM991.581,260.611L998.845,262.428L1003.278,265.371L1003.891,268.759L1002.03,272.429L999.656,270.874L993.49,271.057L991.51,268.054L989.179,266.98L986.346,262.579L984.642,264.406L987.429,267.861L992.681,270.294L992.614,273.105L988.274,274.512L986.099,269.724L983.57,270.371L981.454,268.15L979.13,268.823L978.366,264.8L975.126,263.406L985.424,261.71L988.985,260.399Z" class="land" id="ID-PB" title="Papua Barat"/>
    <path d="M232.234,284.616L228.354,285.122L222.573,283.959L219.33,284.215L216.563,288.542L213.175,291.347L211.387,294.44L208.983,295.822L204.434,294.549L200.218,290.764L196.83,290.401L191.149,288.18L186.265,291.382L181.677,289.876L180.133,287.36L174.947,283.741L173.491,281.167L170.751,280.022L165.607,275.91L163.543,269.993L159.561,270.871L157.771,267.637L156.783,261.393L159.341,259.585L158.668,251.902L156.775,251.738L154.645,254.203L148.345,252.671L147.107,249.44L143.741,248.725L143.735,246.587L141.679,241.657L143.126,237.494L140.65,235.333L138.978,231.016L140.091,227.945L138.93,224.951L139.279,221.88L138.095,217.162L137.889,215.556L143.431,214.386L144.874,213.585L147.449,212.267L148.039,208.908L147.138,203.138L143.638,201.163L145.415,190.059L145.132,188.306L143.644,182.901L144.205,179.321L146.565,186.206L152.709,191.983L155.2,189.905L156.846,186.693L160.69,186.181L164.642,186.758L165.043,189.139L171.857,194.922L172.376,198.939L174.702,204.914L178.47,206.952L184.356,206.891L191.674,213.944L194.927,215.937L196.735,221.643L196.458,224.877L197.819,228.608L204.235,235.33L207.296,236.619L215.325,236.513L217.194,237.68L221.323,243.433L221.371,245.674L209.676,252.985L216.47,251.533L223.617,246.841L225.198,244.34L228.818,242.773L231.58,243.94L239.614,250.947L241.606,260.069L235.828,260.829L234.328,266.989L239.631,268.743L238.613,271.278L235.916,272.64L235.348,274.756L231.115,278.026L230.485,282.01ZM224.228,243.674L222.768,241.863L223.503,238.641L225.158,237.404L227.077,239.702L227.295,242.292ZM208.585,228.092L212.357,227.573L219.87,233.205L219.248,237.753L215.557,234.554L209.961,234.359L207.265,235.195L202.571,231.814L205.082,229.794L204.281,224.457L206.632,223.977ZM220.017,226.691L223.609,231.375L221.396,233.157L217.464,229.971L212.383,226.954L209.5,226.169L210.99,223.095L212.937,222.72ZM202.324,230.307L198.606,226.961L196.799,218.963L196.83,215.376L199.168,214.883L203.965,219.819L203.583,224.489L204.185,229.089ZM204.879,213.549L205.211,218.918L203.999,219.127L199.714,214.421L195.239,213.649L192.361,211.235L192.63,207.969L195.61,209.373L200.307,210.113L204.368,211.805ZM180,205.173L175.703,203.199L174.143,198.557L175.388,193.845L180.914,192.002L184.597,196.063L183.196,202.936Z" class="land" id="ID-RI" title="Riau"/>
    <path d="M786.001,250.453L787.733,245.949L787.838,242.055L786.451,239.385L783.205,238.734L780.255,236.067L779.862,233.612L776.137,229.644L779.873,229.439L788.365,232.211L789.801,231.65L795.969,233.349L798.493,233.24L808.958,227.486L810.898,222.483L816.77,222.05L817.762,219.588L815.392,217.537L817.898,214.549L820.621,215.123L823.829,213.004L823.33,209.501L827.462,205.677L833.017,207.456L835.257,211.642L830.933,216.745L829.76,221.46L825.765,228.836L823.661,229.9L819.328,234.205L816.281,241.061L813.211,245.405L809.867,247.395L791.187,250.988ZM842.975,144.038L845.61,150.103L844.649,151.895L840.737,149.901L840.821,145.798L837.975,143.082L840.502,140.569ZM874.971,132.179L872.878,129.531L875.413,124.959L873.417,123.4L872.473,120.242L873.642,114.468L877.003,116.19L878.837,122.932L875.875,131.108Z" class="land" id="ID-SA" title="Sulawesi Utara"/>
    <path d="M140.65,235.333L143.126,237.494L141.679,241.657L143.735,246.587L143.741,248.725L147.107,249.44L148.345,252.671L154.645,254.203L156.775,251.738L158.668,251.902L159.341,259.585L156.783,261.393L157.771,267.637L159.561,270.871L163.543,269.993L165.607,275.91L170.751,280.022L173.491,281.167L174.947,283.741L180.133,287.36L181.677,289.876L186.265,291.382L187.488,297.001L186.145,298.918L182.622,300.726L183.225,306.095L182.206,308.172L178.958,310.474L177.019,313.817L169.425,315.019L166.743,313.817L166.975,320.61L169.848,324.61L171.288,329.104L171.135,333.124L169.81,334.967L163.54,339.724L159.988,334.595L158.092,329.46L159.876,326.248L159.257,320.94L153.891,312.33L151.301,306.432L151.307,302.438L149.472,301.749L145.97,296.646L146.444,293.472L144.054,285.805L139.551,280.564L137.362,276.314L131.099,269.762L129.049,264.781L129.473,262.271L126.181,258.348L119.251,254.937L117.998,252.569L112.957,252.312L114.439,249.716L116.901,248.911L119.285,244.456L121.994,242.776L126.036,242.629L128.004,245.478L131.791,245.257L134.813,242.92L133.592,238.539L131.57,238.099L131.404,231.599ZM147.636,358.407L145.474,361.559L142.058,359.273L140.012,355.5L139.812,350.367L141.602,349.133L147.779,356.862ZM139.013,350.185L135.725,351.544L134.702,349.502L135.261,345.979L134.352,340.786L139.879,344.802L141.158,347.524ZM127.467,328.944L129.371,333.15L124.343,333.458L122.385,329.377L122.914,326.412L125.021,324.928ZM106.307,290.6L106.599,294.248L108.191,295.732L116.149,315.144L114.458,317.619L110.926,317.991L104.411,313.846L102.496,308.9L97.305,299.873L99.791,290.539Z" class="land" id="ID-SB" title="Sumatera Barat"/>
    <path d="M741.46,435.468L739.853,435.57L735.953,428.917L737.71,423.235L741.045,422.885L742.98,427.721L742.482,433.903ZM762.134,408.658L762.823,418.672L759.077,422.263L757.636,425.499L759.042,428.952L757.285,433.653L749.288,432.668L748.341,430.607L750.449,423.892L752.173,422.292L750.692,415.257L752.023,412.269L756.152,411.198L761.205,407.652ZM775.72,410.585L773.56,410.973L772.987,415.206L770.027,415.007L768.635,423.722L774.815,429.019L772.698,432.659L768.662,432.951L765.911,434.368L765.734,438.248L762.764,442.475L758.679,442.25L756.591,436.539L761.617,428.445L763.102,424.444L765.597,414.212L765.584,409.008L767.784,403.346L771.173,400.662L775.341,406.709ZM772.969,388.883L775.934,388.331L777.345,392.307L774.678,396.148L772.087,396.221L769.414,392.345L770.771,388.165ZM717.932,348.572L722.76,351.111L725.696,349.813L726.289,354.58L729.923,355.894L734.927,352.255L742.244,355.298L746.142,354.865L749.325,356.945L753.288,363.825L751.806,366.101L752.908,369.14L751.076,373.196L749.151,374.081L750.332,377.261L756.36,381.769L757.949,385.013L760.479,384.74L760.428,388.145L762.123,392.91L766.052,392.573L767.733,393.583L767.483,400.717L763.644,403.689L761.216,404.317L759.088,400.928L755.676,402.81L745.053,405.475L743.28,410.255L745.029,414.327L742.919,416.738L737.849,415.507L733.003,415.421L729.544,412.974L727.358,409.21L729.305,401.585L729.27,398.953L732.007,393.682L731.667,390.011L725.796,388.411L722.433,382.766L719.097,380.242L712.658,373.337L712.329,370.545L717.88,361.235L718.876,352.836L716.328,350.723Z" class="land" id="ID-SG" title="Sulawesi Tenggara"/>
    <path d="M697.764,466.049L696.653,457.512L696.988,449.51L699.293,448.282L700.123,453.246ZM685.842,324.482L689.476,322.934L692.361,323.011L693.873,324.799L698.893,325.886L700.731,320.299L705.238,327.675L710.265,331.563L712.499,330.707L715.708,331.563L723.149,335.294L729.866,337.035L734.162,339.381L736.916,342.071L738.814,346.825L737.355,347.639L734.927,352.255L729.923,355.894L726.289,354.58L725.696,349.813L722.76,351.111L717.932,348.572L717.463,345.645L711.612,343.831L707.86,344.882L694.422,354.99L696.092,360.571L699.864,364.453L699.224,372.539L700.42,379.172L697.586,385.452L697.061,391.682L698.214,393.657L697.103,400.611L698.503,409.97L697.48,413.346L695.1,415.6L694.875,419.999L693.463,425.184L696.408,431.629L698.149,440.159L696.622,439.996L694.61,436.706L688.025,439.39L683.426,438.312L679.213,442.866L676.125,442.77L674.941,440.146L670.618,438.357L667.846,433.114L668.856,426.101L671.592,421.712L673.373,416.232L672.658,411.858L675.772,406.382L677.128,394.359L676.62,387.43L672.798,378.681L674.812,374.433L674.168,371.843L672.919,364.466L675.596,360.424L678.36,360.033L676.816,355.91L677.203,349.306L681.462,347.671L685.06,343.119L685.033,339.882L682.684,338.968L681.605,335.429L679.203,334.067L679.314,331.646L684.579,327.008Z" class="land" id="ID-SN" title="Sulawesi Selatan"/>
    <path d="M677.982,286.779L677.771,291.277L679.187,296.799L678.024,300.79L674.323,303.175L676.77,305.688L679.293,304.691L680.371,308.089L683.606,314.343L685.87,316.654L685.842,324.482L684.579,327.008L679.314,331.646L679.203,334.067L681.605,335.429L682.684,338.968L685.033,339.882L685.06,343.119L681.462,347.671L677.203,349.306L676.816,355.91L678.36,360.033L675.596,360.424L672.919,364.466L674.168,371.843L668.794,369.871L666.711,371.92L662.036,372.343L658.467,374.539L656.429,368.576L656.464,358.587L658.109,352.74L654.853,351.784L654.628,348.925L656.543,344.113L658.76,345.155L661.609,343.02L665.528,338.631L665.571,330.973L668.332,323.661L671.706,322.059L672.196,319L670.295,314.25L671.067,311.32L670.31,304.371L672.008,297.768L674.848,294.963L676.911,287.687Z" class="land" id="ID-SR" title="Sulawesi Barat"/>
    <path d="M237.623,413.696L235.635,411.397L235.487,409.011L232.303,404.128L233.283,399.889L230.799,400.226L224.84,396.436L221.807,395.846L221.887,392.82L220.489,389.024L215.875,388.633L211.265,386.613L207.408,381.451L209.951,379.909L210.209,377.78L213.339,373.571L214.965,375.898L217.257,373.01L217.568,367.986L214.987,368.409L211.729,365.29L207.6,367.422L203.612,363.944L203.824,360.465L202.408,357.997L197.288,357.266L196.258,353.855L193.974,352.06L192.136,348.63L192.961,348.905L196.249,346.655L197.072,344.482L200.113,344.632L201.826,346.206L206.682,346.206L208.026,344.033L212.416,341.561L214.168,338.263L214.957,334.14L221.86,335.49L224.344,334.368L223.033,331.746L225.032,328.598L227.677,332.72L230.355,334.967L230.964,330.098L232.722,329.572L233.577,321.03L235.353,319.231L241.531,317.584L243.174,315.936L249.222,317.218L256.068,315.523L256.71,312.824L260.136,313.295L261.939,319.722L267.227,324.1L270.572,325.472L271.347,329.271L268.057,332.983L277.119,336.189L279.53,334.628L283.357,336.208L290.844,336.801L291.085,344.511L295.158,346.319L295.085,351.21L297.13,354.766L299.966,354.564L302.389,356.038L302.942,364.63L298.348,368.432L296.306,373.103L295.398,377.296L298.471,381.198L298.682,384.603L296.084,389.578L295.154,393.317L291.788,392.499L288.998,385.866L284.583,382.625L282.131,379.781L279.197,385.266L276.454,386.164L274.013,392.102L265.983,396.388L260.389,396.189L256.409,397.934L253.16,402.474L253.443,407.507L251.877,410.149L253.848,414.738L252.615,416.485L249.586,415.837L247.097,417.681L242.592,417.332L237.703,413.641Z" class="land" id="ID-SS" title="Sumatera Selatan"/>
    <path d="M778.762,297.643L778.356,301.617L779.681,304.563L784.431,299.082L788.432,301.274L787.651,306.416L785.605,308.746L782.893,307.788L781.447,305.454L778.085,308.4L777.283,302.371L774.406,304.701L772.686,308.951L769.22,311.073L766.97,307.031L767.809,302.028L770.404,298.056L772.29,298.806L777.762,296.886ZM750.818,227.355L744.034,231.4L742.446,228.951L734.751,232.682L729.534,233.368L727.529,234.971L725.145,234.439L722.905,235.795L722.747,238.901L724.474,240.936L727.302,241.635L727.14,245.292L724.936,244.533L721.186,246.882L715.532,247.075L709.516,243.811L704.083,243.449L699.574,245.744L696.871,248.94L693.494,254.716L692.883,260.806L691.161,261.848L690.444,268.733L692.072,274.076L691.4,279.776L693.777,284.468L699.181,290.703L700.931,289.603L703.96,291.636L706.227,295.992L705.477,298.816L708.428,305.214L712.9,303.085L714.027,305.403L719.803,305.663L723.837,298.745L731.024,288.982L736.09,286.305L735.54,289.058L738.127,290.966L743.059,292.145L745.197,290.507L748.297,290.812L749.792,286.177L753.746,285.892L758.055,284.023L764.027,285.01L770.93,284.516L768.141,279.782L773.485,279.452L774.857,277.958L779.472,278.154L784.637,280.949L785.82,284.539L783.714,292.197L779.922,293.136L777.42,288.741L775.093,288.106L768.186,289.273L766.546,293.347L762.801,299.22L755.697,307.749L749.685,311.625L745.48,312.266L739.557,315.151L736.532,321.219L732.23,321.956L729.732,318.407L726.632,316.834L725.502,319.183L726.813,323.876L729.165,323.2L732.953,329.223L736.987,329.986L740.273,334.025L743.732,341.238L744.863,345.975L752.798,353.041L751.526,357.058L754.486,360.241L753.288,363.825L749.325,356.945L746.142,354.865L742.244,355.298L734.927,352.255L737.355,347.639L738.814,346.825L736.916,342.071L734.162,339.381L729.866,337.035L723.149,335.294L715.708,331.563L712.499,330.707L710.265,331.563L705.238,327.675L700.731,320.299L698.893,325.886L693.873,324.799L692.361,323.011L689.476,322.934L685.842,324.482L685.87,316.654L683.606,314.343L680.371,308.089L679.293,304.691L676.77,305.688L674.323,303.175L678.024,300.79L679.187,296.799L677.771,291.277L677.982,286.779L681.088,283.879L682.809,280.904L685.462,287.981L686.397,286.087L683.332,275.439L683.572,270.644L685.088,266.15L680.744,263.524L683.015,260.986L685.208,263.704L686.931,260.396L686.858,257.354L684.176,253.639L687.414,253.053L686.048,249.007L687.629,245.013L691.062,243.289L691.009,237.157L696.183,234.186L697.007,229.112L699.455,228.65L699.469,232.452L701.708,234.186L706.012,235.096L706.942,231.48L709.043,228.204L712.131,225.861L712.867,217.562L716.237,216.966L720.217,217.553L724.371,220.483L728.283,220.021L732.229,225.441L734.215,226.236L743.39,224.784L744.637,227.211L747.093,225.938Z" class="land" id="ID-ST" title="Sulawesi Tengah"/>
    <path d="M92.289,267.897L94.913,271.188L93.948,276.359L91.764,278.449L90.954,274.73ZM91.44,259.96L93.888,263.29L94.612,270.018L90.857,263.576ZM97.69,254.37L102.625,254.44L101.434,257.684L95.878,257.04ZM67.139,214.335L71.68,222.005L74.533,223.156L77.935,226.647L78.695,228.855L77.589,231.865L77.384,239.362L75.303,242.337L72.21,241.427L69.755,233.772L66.425,229.782L64.149,229.294L59.621,219.563L55.812,215.296L59.602,214.569L63.577,211.831ZM84.192,191.015L85.079,185.815L82.833,182.145L81.898,177.929L82.29,169.601L78.303,166.972L77.695,157.381L79.86,153.223L77.727,151.306L76.401,146.045L73.406,140.62L76.383,137.276L76.255,134.593L79.185,132.894L80.312,123.795L85.588,122.173L85.92,127.206L93.364,131.48L94.747,133.904L97.563,134.724L98.446,138.35L101.949,140.973L105.555,142.326L120.331,152.864L121.549,155.249L128.211,159.195L134.361,165.639L134.837,170.345L138.826,173.874L140.746,173.259L144.205,179.321L143.644,182.901L145.132,188.306L145.415,190.059L143.638,201.163L147.138,203.138L148.039,208.908L147.449,212.267L144.874,213.585L143.431,214.386L137.889,215.556L138.095,217.162L139.279,221.88L138.93,224.951L140.091,227.945L138.978,231.016L140.65,235.333L131.404,231.599L131.57,238.099L133.592,238.539L134.813,242.92L131.791,245.257L128.004,245.478L126.036,242.629L121.994,242.776L119.285,244.456L116.901,248.911L114.439,249.716L112.957,252.312L111.112,241.257L107.19,229.948L103.603,217.973L101.405,212.309L103.063,206.478L98.837,204.087L95.505,198.935L92.253,196.281Z" class="land" id="ID-SU" title="Sumatera Utara"/>
    <path d="M426.689,522.989L423.446,522.829L414.394,518.879L404.578,512.989L408.237,508.334L408.407,505.386L413.455,505.348L417.51,501.883L418.31,509.075L420.699,510.301L423.116,509.707L426.213,510.721L424.898,516.974L425.428,521.321Z" class="land" id="ID-YO" title="Yogyakarta"/>
    <path d="M800.8,554.283L799.988,558.218L797.362,560.666L796.337,564.142L793.242,560.454L789.556,561.69L788.355,559.501L792.419,556.985ZM816.829,563.4L816.167,559.122L814.738,557.897L815.188,554.139L820.196,554.01L820.756,549.415L818.877,547.544L815.593,550.612L814.17,547.236L818.989,540.87L820.783,536.866L828.655,534.854L836.618,533.526L840.502,531.957L846.8,533.33L851.164,532.518L856.291,530.147L860.346,532.107L866.27,530.108L872.994,526.91L878.318,527.179L880.964,530.413L872.342,538.371L859.948,542.529L856.581,547.018L847.6,548.276L841.41,552.663L836.92,553.311L825.828,557.332L820.32,562.171Z" class="land" id="TL" title="Timor-Leste"/>
    <path d="M620.843,126.312L616.685,125.558L615.985,123.958L610.996,119.963L607.06,121.143L601.577,120.146L599.676,121.284L593.8,121.163L592.055,118.966L588.763,122.461L586.453,119.486L581.276,119.406L578.663,123.08L576.938,120.845L573.091,119.585L573.236,122.301L570.419,123.939L568.155,128.55L568.155,128.614L566.143,126.315L566.752,124.26L566.321,113.66L563.925,99.526L561.16,99.042L563.286,97.513L563.575,93.969L557.437,89.788L557.859,86.854L561.769,83.118L569.744,82.592L571.712,79.033L572.191,75.743L575.688,72.751L576.806,63.547L582.414,55.994L586.923,51.819L587.004,50.189L590.474,45.16L590.538,40.49L593.199,34.832L595.384,37.219L596.099,43.367L594.375,47.014L596.727,48.518L601.395,41.17L600.702,37.661L603.714,35.525L606.713,37.334L607.181,43.021L608.407,47.123L613.542,50.343L619.45,51.886L621.384,55.237L621.17,59.403L618.194,60.584L620.356,68.213L623.448,70.371L626.276,69.166L628.846,65.843L630.629,67.023L633.013,72.007L631.88,73.729L627.755,73.623L628.645,77.744L633.341,77.603L634.026,74.476L636.785,73.177L642.891,75.396L649.188,80.749L656.17,85.934L659.964,86.745L663.203,85.498L665.748,88.65L665.853,92.543L664.627,94.947L660.482,97.468L650.487,101.537L646.26,101.04L640.735,98.564L636.778,100.937L634.863,104.407L639.265,109.947L645.8,115.725L648.138,115.064L649.636,117.745L647.116,120.521L643.099,120.589L635.441,122.461L631.952,124.59L623.371,119.761ZM606.841,25.328L606.248,29.825L603.477,30.165L601.318,32.202L600.851,26.858L605.087,24.257ZM595.768,28.459L595.765,26.778L598.97,24.254L599.632,27.019Z" class="land" id="MY-12" title="Sabah"/>
    <path d="M451.396,183.824L449.717,183.969L448.55,179.952L447.862,172.383L450.337,173.505L450.355,180.013ZM561.16,99.042L563.925,99.526L566.321,113.66L566.752,124.26L566.143,126.315L568.155,128.614L568.153,128.861L565.991,138.854L565.816,143.047L567.037,147.567L565.256,151.652L564.334,162.478L561.429,164.186L557.865,163.92L555.371,165.895L553.921,173.772L557.494,179.196L554.294,181.003L549.211,185.389L548.475,187.53L545.532,187.899L545.718,194.563L548.113,195.634L547.614,198.548L544.4,200.118L543.08,202.394L543.114,206.446L540.437,209.594L539.807,213.081L538.848,214.091L534.679,211.28L529.229,214.809L527.325,213.078L522.449,213.677L518.757,215.995L518.422,218.264L513.247,220.765L512.019,218.264L507.542,218.726L504.622,215.764L500.819,215.671L498.395,213.911L497.383,210.206L492.725,209.142L490.385,210.623L482.198,209.417L477.066,211.825L473.575,214.328L472.319,223.406L467.159,223.823L464.515,227.852L458.815,226.602L455.678,229.288L454.536,227.108L451.378,227.48L447.235,225.259L437.966,227.249L436.541,229.378L429.955,232.17L425.421,230.964L423.959,228.416L420.832,227.951L417.853,221.838L415.729,221.701L412.065,218.046L411.754,215.453L408.5,214.434L403.615,208.369L403.738,203.18L400.169,200.214L402.698,193.605L402.907,197.929L404.584,200.654L412.187,206.074L419.693,205.33L422.116,202.385L426.017,207.936L433.084,210.632L435.515,209.735L439.83,212.033L442.264,214.963L449.396,217.268L448.472,214.706L444.945,215.142L442.099,213.139L440.448,209.607L442.181,206.077L445.888,193.762L444.932,191.21L445.829,183.113L446.739,182.129L450.219,185.02L452.476,184.074L451.091,180.478L452.188,173.621L458.174,168.719L469.874,166.873L491.079,160.599L495.913,157.724L502.074,148.25L505.737,141.649L508.457,137.93L514.27,131.871L519.251,123.946L520.902,117.677L519.853,113.513L524.061,112.781L527.173,114.115L529.79,117.992L530.314,121.185L539.846,131.102L543.737,127.225L545.057,120.727L542.405,108.988L544.151,106.138L546.694,105.795L548.678,103.307L549.138,105.734L549.283,111.04L551.504,119.473L558.287,121.756L556.35,117.652L555.988,113.66L556.088,111.38L554.265,105.683L552.193,102.749L554.117,101.056L557.181,103.118Z" class="land" id="MY-13" title="Sarawak"/>
    <path d="M552.193,102.749L554.265,105.683L556.088,111.38L555.988,113.66L556.35,117.652L558.287,121.756L551.504,119.473L549.283,111.04L549.138,105.734ZM548.678,103.307L546.694,105.795L544.151,106.138L542.405,108.988L545.057,120.727L543.737,127.225L539.846,131.102L530.314,121.185L529.79,117.992L527.173,114.115L524.061,112.781L529.17,112.682L535.116,109.617L538.954,105.083L545.567,99.828L550.762,98.459Z" class="land" id="BN" title="Brunei Darussalam"/>
  </g>
</svg>
