<?xml version="1.0" encoding="UTF-8"?>
<svg xmlns="http://www.w3.org/2000/svg" width="1271" height="635" viewBox="0 0 1271 635">
  <!-- Created using SVG Map Generator: dojo.amcharts.com/svg-map-generator -->
  <style>
    .land { fill: #b19469; stroke: #2d2d2d; stroke-width: 0.5; }
  </style>
  <g id="polygons">
    <path d="M363.763,200.836L380.199,208.609L401.68,214.482L412.706,217.739L437.107,232.422L463.28,244.966L466.007,246.269L460.216,251.968L453.372,255.8L451.335,259.188L447.443,258.333L444.076,263.527L437.452,266.086L436.185,264.119L428.246,262.845L423.724,263.232L421.051,262.46L415.585,264.982L412.693,262.811L411.302,264.007L410.265,245.905L410.423,238.507L404.816,244.684L401.031,247.523L388.613,247.638L386.565,240.009L380.469,238.057L373.879,237.857L376.926,233.669L376.849,231.156L373.761,226.698L371.165,224.881L368.34,220.818L365.467,211.459L361.134,207.852L362.023,204.68L364.706,204.271Z" class="land" id="BR-AC" title="Acre"/>
    <path d="M865.905,239.952L862.564,236.745L866.179,233.721L868.991,228.98L872.392,230.431L876.493,234.712L879.841,236.297L885.927,235.809L890.198,233.612L893.535,229.496L897.351,230.13L900.922,228.594L905.523,229.934L903.156,235.063L896.119,244.073L893.536,248.801L890.648,251.771L888.691,255.707L888.112,254.358L881.291,249.714L880.052,247.186L875.103,244.018L871.78,243.038Z" class="land" id="BR-AL" title="Alagoas"/>
    <path d="M507.706,48.984L513.134,52.451L517.327,54.032L515.82,59.078L518.252,62.996L520.692,71.987L519.223,73.521L520.131,76.834L518.916,81.031L519.177,86.244L521.595,90.339L522.619,94.867L519.768,97.709L524.294,102.34L526.536,103.75L528.821,107.608L532.223,106.132L532.752,100.029L534.396,95.607L539.351,93.142L541.893,94.12L544.418,98.882L547.179,98.641L550.27,96.591L549.52,92.698L550.609,88.749L554.164,81.45L570.791,81.517L571.153,91.219L572.678,92.108L572.489,95.471L576.753,98.847L577.567,102.208L587.696,110.901L594.795,113.812L599.654,118.223L600.666,120.491L604.42,121.632L606.061,123.383L580.566,190.452L578.64,192.991L578.98,197.603L581.79,200.42L583.137,204.355L582.069,208.953L579.973,212.386L581.221,216.705L579.312,226.49L578.265,227.254L535.401,227.582L533.808,226.166L531.131,229.293L528.157,227.759L525.567,224.483L524.297,221.091L521.98,220.08L519.517,216.27L517.541,215.102L507.871,215.162L505.124,219.773L502.926,220.324L502.932,223.864L500.185,227.361L500.458,230.751L496.973,230.273L494.06,231.77L491.252,231.081L487.516,238.332L485.59,235.53L479.704,238.535L477.907,240.663L475.046,237.865L468.942,237.943L469.038,239.858L463.28,244.966L437.107,232.422L412.706,217.739L401.68,214.482L380.199,208.609L363.763,200.836L364.178,197.126L369.485,192.054L371.499,191.805L372.759,188.797L371.032,184.12L374.535,176.892L375.18,169.165L381.982,164.322L388.846,158.534L392.374,158.383L399.059,155.929L402.057,156.325L404.684,152.517L407.201,153.295L410.882,152.387L412.673,155.522L415.725,155.193L416.947,148.825L422.382,109.949L423.398,106.895L422.472,101.698L420.057,97.446L420.129,93.615L415.532,90.115L413.78,87.731L413.983,75.677L417.478,75.409L422.208,73.216L424.612,75.062L426.854,74.719L426.693,71.155L423.93,67.756L416.861,67.767L416.887,57.406L420.999,56.214L423.536,57.12L440.646,57.183L445.446,56.206L448.658,51.843L452.125,50.869L454.584,55.649L456,60.495L455.701,66.139L458.581,65.353L466.014,72.742L468.971,73.256L474.488,69.219L477.642,70.532L482.479,69.436L482.906,67.017L487.374,64.402L490.52,63.582L493.362,60.63L495.179,61.21L497.817,58.623L498.221,54.482L502.627,52.655Z" class="land" id="BR-AM" title="Amazonas"/>
    <path d="M668.641,103.854L663.422,103.561L660.031,99.456L659.843,95.711L658.382,91.498L655.744,88.063L654.308,88.251L653.078,82.952L651.385,78.885L651.461,73.039L647.353,69.91L647.469,65.942L643.892,61.957L640.751,62.406L636.92,58.201L634.041,56.587L628.974,56.479L628.499,54.4L629.334,48.284L628.476,45.287L629.687,47.419L632.797,49.267L637.761,50.863L642.904,46.68L645.947,48.653L648.88,47.054L653.977,49.843L657.924,46.63L662.587,35.818L670.948,20.498L674.241,17.736L677.182,16.492L680.633,22.068L680.698,30.315L681.24,34.357L683.596,40.681L685.897,50.03L688.84,55.261L692.679,55.545L696.329,57.414L697.007,60.19L696.522,66.499L691.983,70.748L688.981,74.43L684.611,81.992L681.836,82.923L679.968,86.045L676.769,88.827L674.898,93.105L671.442,97.391L671.286,101.796Z" class="land" id="BR-AP" title="Amapá"/>
    <path d="M841.231,377.473L840.82,373.716L836.981,370.658L835.128,368.027L835.887,360.302L838.776,359.65L839.061,354.826L843.234,350.58L844.372,347.47L843.197,345.256L839.086,342.314L828.934,339.918L826.528,341.418L823.692,341.179L823.087,337.172L816.967,330.893L812.78,331.963L805.742,327.81L800.817,324.305L797.339,322.992L792.935,325.474L788.111,323.984L787.315,321.058L788.326,318.273L780.842,316.64L777.515,318.25L773.369,322.45L768.689,324.754L766.386,327.52L764.248,327.901L761.866,331.293L759.316,331.038L757.734,326.81L759.119,324.025L758.698,318.38L755.696,315.715L754.001,312.194L753.222,307.027L754.044,299.521L755.538,295.479L752.986,292.962L753.741,288.052L752.414,287.55L751.166,285.593L751.21,281.735L754.704,278.854L752.13,277.566L753.825,274.892L752.512,272.639L749.281,271.948L747.534,269.937L750.661,259.93L756.766,255.15L757.995,252.977L760.082,252.956L762.056,255.408L764.298,260.252L768.114,262.167L771.596,261.813L772.494,260.101L777.018,257.127L779.562,257.849L783.322,254.914L786.388,248.823L786.594,244.034L784.452,238.486L787.299,236.783L791.098,238.387L794.211,237.376L797.813,240.052L803.317,239.167L805.315,236.519L809.13,234.785L811.931,235.494L813.371,231.146L816.78,230.246L818.427,226.66L822.25,227.099L825.223,229.061L825.951,233.898L827.957,234.837L829.152,239.281L833.255,237.191L833.835,233.49L838.324,231.962L839.14,228.655L842.008,225.806L845.706,223.838L851.735,227.439L855.869,229.038L861.34,232.622L862.564,236.745L865.905,239.952L865.598,243.355L869.368,249.137L868.809,254.928L869.583,257.766L866.49,259.951L863.929,259.166L864.136,263.546L867.131,267.718L866.903,270.006L871.564,273.226L874.119,272.318L875.032,272.725L871.715,281.788L867.671,289.493L863.411,295.368L860.502,296.65L860.635,291.94L857.581,290.184L857.293,296.146L853.495,304.419L854.929,307.556L854.115,310.116L855.716,313.239L854.194,323.253L855.323,328.649L856.803,339.731L857.856,343.182L856.228,349.907L854.282,364.231L854.926,371.003L855.815,372.71L854.003,375.691L851.642,377.004L848.997,383.132Z" class="land" id="BR-BA" title="Bahia"/>
    <path d="M874.911,163.62L870.543,165.277L868.228,167.378L863.465,178.622L860.483,183.89L858.394,183.706L856.433,186.963L857.333,188.8L854.645,197.056L855.523,201.621L857.608,203.873L855.368,208.922L851.686,212.666L847.662,209.931L846.292,207.785L842.027,204.946L836.197,205.453L829.513,205.185L828.808,202.102L831.049,196.533L830.324,194.608L826.83,193.436L824.276,182.098L823.043,171.867L823.543,170.22L822.012,165.007L821.65,159.299L822.299,157.087L817.71,146.907L816.041,141.969L815.907,139.101L818.353,134.264L818.686,131.938L824.743,131.702L829.195,130.567L835.852,131.389L839.528,134.13L850.028,140.305L854.754,144.9L857.071,145.652L863.116,153.316L870.546,160.504L873.722,161.501Z" class="land" id="BR-CE" title="Ceará"/>
    <path d="M741.053,345.867L728,345.851L727.335,342.554L728.141,336.93L738.772,336.943L740.516,338.944L740.21,344.847Z" class="land" id="BR-DF" title="Distrito Federal"/>
    <path d="M821.332,423.121L820.969,416.337L822.455,413.88L827.004,413.919L828.996,409.146L829.725,405.172L832.345,401.822L832.215,396.463L830.914,393.668L831.91,391.121L830.605,384.79L828.579,382.757L831.334,379.531L831.947,377.278L838.093,376.107L841.231,377.473L848.997,383.132L848.376,386.468L848.597,392.888L849.611,399.005L848.368,404.601L846.032,405.978L841.187,420.224L838.406,424.006L836.58,424.389L834.281,431.276L830.173,430.597L824.006,428.497L823.083,423.87Z" class="land" id="BR-ES" title="Espírito Santo"/>
    <path d="M741.053,345.867L740.21,344.847L740.516,338.944L738.772,336.943L728.141,336.93L727.335,342.554L728,345.851L741.053,345.867L741.049,348.98L739.426,353.328L742.364,355.921L744.157,361.111L739.609,366.855L739.372,368.997L743.069,370.819L742.286,375.334L743.583,378.784L739.973,381.042L738.932,383.057L734.8,385.791L729.689,383.651L722.899,383.629L721.057,382.744L715.232,388.288L712.313,386.569L709.607,388.2L706.279,387.587L702.226,389.084L699.752,395.901L697.908,396.162L694.965,401.579L692.183,398.912L687.798,396.77L684.766,396.305L672.679,389.421L666.812,388.88L668.162,384.373L663.979,382.439L663.697,378.096L662.267,372.472L660.649,369.559L660.754,366.146L662.722,362.281L662.851,359.354L665.15,357.736L667.692,353.918L668.222,350.937L672.426,343.272L677.399,341.984L679.454,336.783L679.757,332.632L681.626,329.914L685.106,329.312L687.282,327.128L688.718,321.231L688.512,316.472L689.754,313.334L689.351,308.05L690.384,307.263L693.051,300.248L692.76,297.466L693.914,293.866L703.225,295.72L710.332,298.698L711.479,292.623L713.666,289.177L715.785,292.449L717.679,299.405L720.012,297.117L726.5,296.924L726.322,299.278L732.822,301.386L737.042,300.051L739.19,297.929L744.557,296.906L748.273,294.408L752.986,292.962L755.538,295.479L754.044,299.521L753.222,307.027L754.001,312.194L755.696,315.715L758.698,318.38L759.119,324.025L757.734,326.81L754.006,327.493L750.867,324.202L749.908,325.713L750.641,329.543L745.935,329.583L745.568,335.738L747.48,342.777Z" class="land" id="BR-GO" title="Goiás"/>
    <path d="M810.006,130.096L810.06,134.51L804.813,141.037L801.115,141.35L798.532,144.91L797.824,148.695L794.193,153.971L796.021,158.182L794.816,162.709L796.282,165.637L796.607,171.854L793.014,176.465L793.563,183.646L796.673,186.714L795.927,193.646L794.877,195.012L787.977,196.065L785.686,194.171L780.176,195.21L776.243,200.667L768.063,206.461L762.359,207.957L760.507,209.983L758.965,218.563L756.154,226.62L754.088,230.142L755.317,235.447L756.98,238.61L756.335,240.59L756.455,247.16L755.357,252.763L751.958,250.477L749.73,250.501L747.453,245.479L745.48,243.802L746.601,239.676L743.054,237.664L741.625,233.218L738.902,231.047L741.169,228.414L741.92,222.801L746.232,219.908L746.574,214.718L744.923,213.46L739.243,215.828L733.447,207.488L732.022,203.551L728.641,202.206L731.854,198.651L731.97,193.495L733.403,187.085L732.635,180.453L730.751,174.169L726.568,172.647L725.675,170.513L722.005,170.669L719.472,169.09L716.949,169.582L714.169,172.182L726.698,159.755L728.816,159.999L732.936,154.351L733.445,151.343L736.599,148.433L738.6,140.287L741.646,136.838L743.285,131.225L742.331,129.567L745.606,126.331L745.902,122.124L747.457,120.483L748.619,114.901L749.132,106.376L750.241,104.824L753.41,105.624L762.107,110.707L764.229,108.944L767.217,109.576L769.83,114.687L772.022,114.92L772.542,120.057L774.566,122.845L771.509,126.847L770.044,133.803L771.121,135.667L773.798,132.818L774.661,126.196L778.184,124.365L780.679,126.55L787.412,126.377L789.704,123.707L797.82,126.783L800.682,129.525L808.449,131.364Z" class="land" id="BR-MA" title="Maranhão"/>
    <path d="M841.231,377.473L838.093,376.107L831.947,377.278L831.334,379.531L828.579,382.757L830.605,384.79L831.91,391.121L830.914,393.668L832.215,396.463L832.345,401.822L829.725,405.172L828.996,409.146L827.004,413.919L822.455,413.88L820.969,416.337L821.332,423.121L818.436,426.883L815.393,436.446L816.792,438.408L806.627,443.795L802.238,443.166L796.204,444.08L790.435,447.317L787.718,447.216L782.639,449.716L779.688,450.638L775.587,453.488L771.453,453.648L770.261,456.903L765.522,457.766L762.567,457.242L760.514,454.029L760.924,451.677L757.602,449.673L756.59,440.358L758.008,437.698L758.158,433.961L754.793,432.668L751.629,433.419L747.836,425.377L749.025,421.471L746.253,417.607L746.489,413.243L743.355,409.934L741.525,410.85L737.916,410.194L737.592,412.222L731.936,412.277L721.519,413.085L719.728,415.422L718.136,411.047L714.563,408.869L709.96,409.584L700.237,407.482L694.655,411.736L693.936,405.972L694.965,401.579L697.908,396.162L699.752,395.901L702.226,389.084L706.279,387.587L709.607,388.2L712.313,386.569L715.232,388.288L721.057,382.744L722.899,383.629L729.689,383.651L734.8,385.791L738.932,383.057L739.973,381.042L743.583,378.784L742.286,375.334L743.069,370.819L739.372,368.997L739.609,366.855L744.157,361.111L742.364,355.921L739.426,353.328L741.049,348.98L741.053,345.867L747.48,342.777L745.568,335.738L745.935,329.583L750.641,329.543L749.908,325.713L750.867,324.202L754.006,327.493L757.734,326.81L759.316,331.038L761.866,331.293L764.248,327.901L766.386,327.52L768.689,324.754L773.369,322.45L777.515,318.25L780.842,316.64L788.326,318.273L787.315,321.058L788.111,323.984L792.935,325.474L797.339,322.992L800.817,324.305L805.742,327.81L812.78,331.963L816.967,330.893L823.087,337.172L823.692,341.179L826.528,341.418L828.934,339.918L839.086,342.314L843.197,345.256L844.372,347.47L843.234,350.58L839.061,354.826L838.776,359.65L835.887,360.302L835.128,368.027L836.981,370.658L840.82,373.716Z" class="land" id="BR-MG" title="Minas Gerais"/>
    <path d="M694.655,411.736L694.508,414.16L690.492,416.595L687.511,420.169L687.223,424.707L684.284,429.172L684.743,431.989L682.327,436.5L682.577,438.513L677.372,446.548L671.156,450.962L669.027,454.614L663.599,457.606L662.227,464.43L659.158,466.711L658.588,474.346L656.433,476.632L650.784,472.568L646.982,475.187L643.368,476.071L640.306,475.007L638.203,469.305L637.001,461.663L635.091,456.394L635.329,453.513L631.449,447.803L626.584,447.573L622.263,444.529L620.633,447.201L617.335,447.563L613.435,446.412L610.425,446.642L601.839,444.585L602.398,432.338L602.328,426.413L601.318,422.432L599.79,422.029L596.305,413.185L600.234,410.042L596.168,406.223L599.881,394.904L599.764,392.598L602.21,381.148L598.983,375.297L598.846,373.383L602.516,376.213L607.327,374.239L611.646,366.655L617.453,366.291L618.546,365.043L627.738,367.978L628.821,369.859L633.949,372.705L637.899,372.073L640.547,369.809L642.707,369.877L645.681,372.588L648.407,371.764L652.923,365.744L653.518,372.237L650.729,375.763L653.573,378.138L663.697,378.096L663.979,382.439L668.162,384.373L666.812,388.88L672.679,389.421L684.766,396.305L687.798,396.77L692.183,398.912L694.965,401.579L693.936,405.972Z" class="land" id="BR-MS" title="Mato Grosso do Sul"/>
    <path d="M551.905,307.495L556.61,303.409L557.939,297.044L560.125,295.401L562.632,289.77L562.951,285.715L560.683,278.66L559.338,278.169L558.814,273.477L561.227,269.802L559.763,266.109L554.661,265.638L553.696,263.922L538.349,263.872L538.665,254.598L536.827,249.119L537.864,241.771L535.758,236.502L537.293,229.865L535.401,227.582L578.265,227.254L579.312,226.49L581.221,216.705L579.973,212.386L582.069,208.953L583.137,204.355L586.573,209.694L588.372,215.631L590.388,219.322L591.548,226.612L595.772,230.619L598.871,232.378L599.356,234.996L602.431,235.695L608.08,238.964L638.664,241.466L695.183,245.065L693.294,249.358L690.868,259.205L690.614,265.298L689.215,271.465L690.618,273.72L690.734,283.366L691.78,287.077L691.263,289.905L693.914,293.866L692.76,297.466L693.051,300.248L690.384,307.263L689.351,308.05L689.754,313.334L688.512,316.472L688.718,321.231L687.282,327.128L685.106,329.312L681.626,329.914L679.757,332.632L679.454,336.783L677.399,341.984L672.426,343.272L668.222,350.937L667.692,353.918L665.15,357.736L662.851,359.354L662.722,362.281L660.754,366.146L660.649,369.559L662.267,372.472L663.697,378.096L653.573,378.138L650.729,375.763L653.518,372.237L652.923,365.744L648.407,371.764L645.681,372.588L642.707,369.877L640.547,369.809L637.899,372.073L633.949,372.705L628.821,369.859L627.738,367.978L618.546,365.043L617.453,366.291L611.646,366.655L607.327,374.239L602.516,376.213L598.846,373.383L595.939,369.054L593.301,368.95L589.199,366.07L586.959,356.222L588.536,353.477L587.027,350.603L563.086,349.518L561.172,336.739L555.931,330.534L560.265,330.469L559.403,322.813L556.091,315.398L557.245,312.458L555.759,309.466Z" class="land" id="BR-MT" title="Mato Grosso"/>
    <path d="M711.117,109.329L707.064,111.376L702.199,111.591L698.013,114.633L694.614,112.912L690.135,114.977L687.255,114.377L686.295,111.798L684.112,108.628L684.419,95.633L686.209,89.436L690.666,86.803L700.258,89.207L706.65,87.379L717.596,89.431L715.809,99.791ZM698.513,85.174L700.18,83.919L703.441,84.598L703.181,87.092L699.567,87.713ZM683.246,89.77L681.629,86.635L685.477,85.265L687.465,86.189ZM675.782,93.066L677.897,88.449L679.32,89.806ZM668.67,109.149L668.876,104.387L671.188,103.66L672.709,97.089L675.892,93.99L678.474,93.784L679.128,96.258L677.397,101.734L674.516,105.311ZM694.21,85.174L690.113,84.543L689.783,82.095L694.817,80.338L699.145,79.705L700.284,81.76L696.386,85.811ZM691.718,79.624L690.966,76.953L694.228,74.613L694.967,76.377ZM695.183,245.065L638.664,241.466L608.08,238.964L602.431,235.695L599.356,234.996L598.871,232.378L595.772,230.619L591.548,226.612L590.388,219.322L588.372,215.631L586.573,209.694L583.137,204.355L581.79,200.42L578.98,197.603L578.64,192.991L580.566,190.452L606.061,123.383L604.42,121.632L600.666,120.491L599.654,118.223L594.795,113.812L587.696,110.901L577.567,102.208L576.753,98.847L572.489,95.471L572.678,92.108L571.153,91.219L570.791,81.517L569.421,63.749L571.683,65.907L575.776,64.562L576.038,61.557L578.931,59.477L582.992,60.567L586.494,57.286L589.74,57.318L591.204,54.305L595.786,52.335L597.123,53.956L600.389,54.724L602.397,53.688L606.622,53.917L610.812,55.363L612.575,51.929L609.634,48.659L611.552,44.227L615.302,46.208L625.771,43.766L628.476,45.287L629.334,48.284L628.499,54.4L628.974,56.479L634.041,56.587L636.92,58.201L640.751,62.406L643.892,61.957L647.469,65.942L647.353,69.91L651.461,73.039L651.385,78.885L653.078,82.952L654.308,88.251L655.744,88.063L658.382,91.498L659.843,95.711L660.031,99.456L663.422,103.561L668.641,103.854L668.291,106.847L663.177,110.095L665.153,111.595L669.067,110.389L674.998,106.72L683.712,100.253L683.615,106.931L683.918,108.628L684.659,110.308L685.845,111.725L686.021,113.938L684.384,115.861L677.646,113.644L681.508,118.125L683.859,116.995L685.874,114.567L689.562,116.869L695.349,114.739L697.62,116.067L705.53,113.852L702.381,121.826L703.422,124.105L706.994,115.711L709.838,115.057L713.167,109.504L716.651,106.359L718.636,106.564L718.991,101.161L722.575,96.67L723.905,97.778L726.535,95.594L728.077,97.125L731.341,94.631L733.388,94.902L738.443,98.821L742.595,98.578L743.882,101.877L748.752,100.719L750.241,104.824L749.132,106.376L748.619,114.901L747.457,120.483L745.902,122.124L745.606,126.331L742.331,129.567L743.285,131.225L741.646,136.838L738.6,140.287L736.599,148.433L733.445,151.343L732.936,154.351L728.816,159.999L726.698,159.755L714.169,172.182L719.076,172.89L722.333,176.317L720.238,178.427L721.297,181.286L720.534,184.15L718.673,185.134L715.4,191.128L715.372,193.223L710.129,195.665L707.801,197.876L708.382,202.929L706.083,206.857L706.707,209.358L709.083,211.805L707.213,221.34L703.316,229.027L701.191,230.148L697.325,236.643Z" class="land" id="BR-PA" title="Pará"/>
    <path d="M908.585,207.668L906.291,205.538L903.167,205.041L899.82,207.483L899.463,209.358L894.274,212.042L888.839,212.078L885.313,213.759L882.553,218.663L879.899,219.7L877.564,217.906L876.416,208.097L878.69,205.236L875.509,203.232L872.222,204.974L865.487,211.418L861.699,212.664L860.426,210.328L857.924,211.342L855.368,208.922L857.608,203.873L855.523,201.621L854.645,197.056L857.333,188.8L863.011,191.092L867.618,187.45L868.043,185.382L875.055,182.91L876.149,184.689L873.533,188.038L871.508,193.617L874.692,194.154L875.552,196.066L878.356,194.76L881.696,194.988L882.847,198.573L885.836,195.582L885.631,188.894L888.481,187.445L889.358,189.4L892.919,190.178L898.145,189.775L902.323,191.23L907.228,190.788L907.357,193.28L909.866,201.652L909.732,207.036Z" class="land" id="BR-PB" title="Paraíba"/>
    <path d="M862.564,236.745L861.34,232.622L855.869,229.038L851.735,227.439L845.706,223.838L842.008,225.806L839.14,228.655L838.324,231.962L833.835,233.49L833.255,237.191L829.152,239.281L827.957,234.837L825.951,233.898L825.223,229.061L822.25,227.099L818.427,226.66L822.909,222.666L825.784,220.995L829.157,216.983L829.772,212.807L827.999,210.597L827.45,205.697L829.513,205.185L836.197,205.453L842.027,204.946L846.292,207.785L847.662,209.931L851.686,212.666L855.368,208.922L857.924,211.342L860.426,210.328L861.699,212.664L865.487,211.418L872.222,204.974L875.509,203.232L878.69,205.236L876.416,208.097L877.564,217.906L879.899,219.7L882.553,218.663L885.313,213.759L888.839,212.078L894.274,212.042L899.463,209.358L899.82,207.483L903.167,205.041L906.291,205.538L908.585,207.668L909.814,214.04L905.523,229.934L900.922,228.594L897.351,230.13L893.535,229.496L890.198,233.612L885.927,235.809L879.841,236.297L876.493,234.712L872.392,230.431L868.991,228.98L866.179,233.721Z" class="land" id="BR-PE" title="Pernambuco"/>
    <path d="M818.353,134.264L815.907,139.101L816.041,141.969L817.71,146.907L822.299,157.087L821.65,159.299L822.012,165.007L823.543,170.22L823.043,171.867L824.276,182.098L826.83,193.436L830.324,194.608L831.049,196.533L828.808,202.102L829.513,205.185L827.45,205.697L827.999,210.597L829.772,212.807L829.157,216.983L825.784,220.995L822.909,222.666L818.427,226.66L816.78,230.246L813.371,231.146L811.931,235.494L809.13,234.785L805.315,236.519L803.317,239.167L797.813,240.052L794.211,237.376L791.098,238.387L787.299,236.783L784.452,238.486L786.594,244.034L786.388,248.823L783.322,254.914L779.562,257.849L777.018,257.127L772.494,260.101L771.596,261.813L768.114,262.167L764.298,260.252L762.056,255.408L760.082,252.956L757.995,252.977L755.357,252.763L756.455,247.16L756.335,240.59L756.98,238.61L755.317,235.447L754.088,230.142L756.154,226.62L758.965,218.563L760.507,209.983L762.359,207.957L768.063,206.461L776.243,200.667L780.176,195.21L785.686,194.171L787.977,196.065L794.877,195.012L795.927,193.646L796.673,186.714L793.563,183.646L793.014,176.465L796.607,171.854L796.282,165.637L794.816,162.709L796.021,158.182L794.193,153.971L797.824,148.695L798.532,144.91L801.115,141.35L804.813,141.037L810.06,134.51L810.006,130.096L812.347,131.983L817.16,132.753Z" class="land" id="BR-PI" title="Piauí"/>
    <path d="M736.86,508.135L728.45,508.856L724.716,512.221L717.73,508.647L709.08,509.497L706.645,512.635L703.501,512.255L700.901,515.561L701.957,518.38L691.435,517.971L688.794,515.875L680.264,513.949L675.952,514.461L673.706,512.649L668.557,512.744L665.567,507.648L664.133,502.456L660.899,500.21L656.462,502.443L653.879,499.381L655.908,494.599L655.302,492.377L656.886,481.532L655.332,478.174L656.433,476.632L658.588,474.346L659.158,466.711L662.227,464.43L663.599,457.606L669.027,454.614L671.665,452.391L681.5,453.198L683.357,451.648L690.455,454.195L694.767,453.787L700.314,456.348L701.661,458.125L710.278,458.659L712.803,457.83L718.281,463.775L718.69,469.541L721.389,476.127L725.511,481.596L724.482,484.642L726.422,487.162L734.665,486.852L735.1,492.225L737.65,490.025L740.22,490.419L741.008,495.434L742.564,497.243L738.282,496.936L738.92,501.114Z" class="land" id="BR-PR" title="Paraná"/>
    <path d="M785.384,465.188L783.371,463.261L783.96,459.473L786.802,457.377L790.905,456.48L791.393,452.797L785.599,452.918L782.639,449.716L787.718,447.216L790.435,447.317L796.204,444.08L802.238,443.166L806.627,443.795L816.792,438.408L815.393,436.446L818.436,426.883L821.332,423.121L823.083,423.87L824.006,428.497L830.173,430.597L834.281,431.276L833.549,436.173L835.036,442.8L832.07,445.173L826.969,447.065L821.813,452.324L822.15,456.658L820.066,458.596L814.312,458.429L809.291,459.104L806.595,457.63L804.567,459.63L800.231,459.726L796.619,457.732L791.651,460.206L790.296,458.122L785.66,460.327Z" class="land" id="BR-RJ" title="Rio de Janeiro"/>
    <path d="M907.228,190.788L902.323,191.23L898.145,189.775L892.919,190.178L889.358,189.4L888.481,187.445L885.631,188.894L885.836,195.582L882.847,198.573L881.696,194.988L878.356,194.76L875.552,196.066L874.692,194.154L871.508,193.617L873.533,188.038L876.149,184.689L875.055,182.91L868.043,185.382L867.618,187.45L863.011,191.092L857.333,188.8L856.433,186.963L858.394,183.706L860.483,183.89L863.465,178.622L868.228,167.378L870.543,165.277L874.911,163.62L876.126,165.191L880.04,165.606L882.773,167.958L888.357,168.163L892.718,167.157L897.918,168.159L901.199,170.89L903.343,175.837Z" class="land" id="BR-RN" title="Rio Grande do Norte"/>
    <path d="M466.007,246.269L463.28,244.966L469.038,239.858L468.942,237.943L475.046,237.865L477.907,240.663L479.704,238.535L485.59,235.53L487.516,238.332L491.252,231.081L494.06,231.77L496.973,230.273L500.458,230.751L500.185,227.361L502.932,223.864L502.926,220.324L505.124,219.773L507.871,215.162L517.541,215.102L519.517,216.27L521.98,220.08L524.297,221.091L525.567,224.483L528.157,227.759L531.131,229.293L533.808,226.166L535.401,227.582L537.293,229.865L535.758,236.502L537.864,241.771L536.827,249.119L538.665,254.598L538.349,263.872L553.696,263.922L554.661,265.638L559.763,266.109L561.227,269.802L558.814,273.477L559.338,278.169L560.683,278.66L562.951,285.715L562.632,289.77L560.125,295.401L557.939,297.044L556.61,303.409L551.905,307.495L547.6,304.414L541.35,305.394L536.93,305.319L532.794,300.807L532.276,298.891L528.495,298.764L522.985,296.486L519.681,293.777L518.477,290.856L516.018,291.605L509.852,287.777L506.367,289.024L500.082,287.741L497.848,284.061L494.657,282.563L493.543,280.586L490.732,279.95L489.742,276.134L486.026,271.892L484.435,266.618L485.646,263.623L483.418,257.658L483.231,255.296L485.129,250.776L484.643,245.032L482.544,242.383L480.899,244.919L478.379,243.868L473.747,243.95Z" class="land" id="BR-RO" title="Rondônia"/>
    <path d="M569.421,63.749L570.791,81.517L554.164,81.45L550.609,88.749L549.52,92.698L550.27,96.591L547.179,98.641L544.418,98.882L541.893,94.12L539.351,93.142L534.396,95.607L532.752,100.029L532.223,106.132L528.821,107.608L526.536,103.75L524.294,102.34L519.768,97.709L522.619,94.867L521.595,90.339L519.177,86.244L518.916,81.031L520.131,76.834L519.223,73.521L520.692,71.987L518.252,62.996L515.82,59.078L517.327,54.032L513.134,52.451L507.706,48.984L508.211,46.11L501.545,45.791L498.576,45.052L499.279,41.037L496.344,33.329L496.668,26.894L490.664,20.79L489.512,17.891L494.811,17.727L497.729,18.45L498.696,21.717L501.583,20.899L507.6,20.764L510.058,21.885L513.498,26.655L516.433,26.655L517.226,24.596L516.892,19.9L521.401,17.263L525.542,18.716L530.918,16.284L533.844,16.19L534.552,13.889L537.31,12.002L541.893,11.797L543.373,8.705L545.728,7.627L547.783,4.76L546.799,1.046L554.403,0L556.157,3.625L555.439,8.745L556.545,11.98L560.252,13.976L559.401,16.672L561.427,20.249L560.166,24.916L557.779,27.956L558.031,30.629L555.816,36.049L555.381,41.53L556.654,46.792L558.964,48.788L558.595,54.954L561.96,57.778L565.622,62.664Z" class="land" id="BR-RR" title="Roraima"/>
    <path d="M667.767,527.591L673.562,526.871L681.548,528.076L683.336,529.154L689.298,528.786L693.665,530.958L694.801,533.239L697.761,532.644L706.404,538.28L714.894,547.924L720.799,548.909L725.512,548.85L726.526,551.017L723.855,552.862L723.401,559.233L727.91,562.81L724.331,570.843L722.052,581.404L717.875,590.883L714.011,596.882L712.28,596.771L712.014,591.478L716.903,587.117L718.6,581.337L718.651,578.542L713.706,579.03L710.621,578.075L705.681,593.833L702.36,595.242L701.198,601.223L699.345,602.387L700.321,605.619L700.386,610.719L698.983,614.733L698.219,620.82L695.983,627L688.713,635L686.379,633.633L685.299,626.159L685.656,624.123L689.889,618.381L685.443,615.841L681.917,612.407L681.102,609.937L677.086,605.611L673.672,604.713L669.167,601.203L666.918,597.742L664.01,597.33L657.929,594.291L654.667,589.603L652.215,587.691L649.353,591.397L647.08,591.511L646.501,586.867L642.802,582.985L634.012,575.576L630.534,575.635L629.048,578.631L623.95,577.077L626.807,573.497L627.016,570.676L629.28,569.965L633.807,563.114L634.179,560.784L636.804,558.638L638.199,553.848L641.294,550.323L642.471,547.192L645.583,543.451L647.879,542.563L649.243,539.872L653.107,538.431L655.305,533.551L657.071,533.873L662.297,531.736L665.545,527.918Z" class="land" id="BR-RS" title="Rio Grande do Sul"/>
    <path d="M727.91,562.81L723.401,559.233L723.855,552.862L726.526,551.017L725.512,548.85L720.799,548.909L714.894,547.924L706.404,538.28L697.761,532.644L694.801,533.239L693.665,530.958L689.298,528.786L683.336,529.154L681.548,528.076L673.562,526.871L667.767,527.591L669.099,522.878L667.917,514.396L668.557,512.744L673.706,512.649L675.952,514.461L680.264,513.949L688.794,515.875L691.435,517.971L701.957,518.38L700.901,515.561L703.501,512.255L706.645,512.635L709.08,509.497L717.73,508.647L724.716,512.221L728.45,508.856L736.86,508.135L737.236,511.317L735.061,513.174L737.301,515.632L736.75,519.974L738.437,526.575L739.017,535.383L740.473,538.93L739.945,544.835L738.121,551.249L731.4,557.017Z" class="land" id="BR-SC" title="Santa Catarina"/>
    <path d="M874.119,272.318L871.564,273.226L866.903,270.006L867.131,267.718L864.136,263.546L863.929,259.166L866.49,259.951L869.583,257.766L868.809,254.928L869.368,249.137L865.598,243.355L865.905,239.952L871.78,243.038L875.103,244.018L880.052,247.186L881.291,249.714L888.112,254.358L888.691,255.707L886.583,256.496L880.213,261.562L876.375,270.689Z" class="land" id="BR-SE" title="Sergipe"/>
    <path d="M742.564,497.243L741.008,495.434L740.22,490.419L737.65,490.025L735.1,492.225L734.665,486.852L726.422,487.162L724.482,484.642L725.511,481.596L721.389,476.127L718.69,469.541L718.281,463.775L712.803,457.83L710.278,458.659L701.661,458.125L700.314,456.348L694.767,453.787L690.455,454.195L683.357,451.648L681.5,453.198L671.665,452.391L669.027,454.614L671.156,450.962L677.372,446.548L682.577,438.513L682.327,436.5L684.743,431.989L684.284,429.172L687.223,424.707L687.511,420.169L690.492,416.595L694.508,414.16L694.655,411.736L700.237,407.482L709.96,409.584L714.563,408.869L718.136,411.047L719.728,415.422L721.519,413.085L731.936,412.277L737.592,412.222L737.916,410.194L741.525,410.85L743.355,409.934L746.489,413.243L746.253,417.607L749.025,421.471L747.836,425.377L751.629,433.419L754.793,432.668L758.158,433.961L758.008,437.698L756.59,440.358L757.602,449.673L760.924,451.677L760.514,454.029L762.567,457.242L765.522,457.766L770.261,456.903L771.453,453.648L775.587,453.488L779.688,450.638L782.639,449.716L785.599,452.918L791.393,452.797L790.905,456.48L786.802,457.377L783.96,459.473L783.371,463.261L785.384,465.188L782.896,464.992L781.014,467.521L776.41,469.691L776.881,472.537L770.801,471.815L767.489,473.076L766.221,475.628L762.981,476.104L756.694,480.181L753.185,484.956L748.904,487.334L742.522,492.936L744.775,493.79Z" class="land" id="BR-SP" title="São Paulo"/>
    <path d="M752.986,292.962L748.273,294.408L744.557,296.906L739.19,297.929L737.042,300.051L732.822,301.386L726.322,299.278L726.5,296.924L720.012,297.117L717.679,299.405L715.785,292.449L713.666,289.177L711.479,292.623L710.332,298.698L703.225,295.72L693.914,293.866L691.263,289.905L691.78,287.077L690.734,283.366L690.618,273.72L689.215,271.465L690.614,265.298L690.868,259.205L693.294,249.358L695.183,245.065L697.325,236.643L701.191,230.148L703.316,229.027L707.213,221.34L709.083,211.805L706.707,209.358L706.083,206.857L708.382,202.929L707.801,197.876L710.129,195.665L715.372,193.223L715.4,191.128L718.673,185.134L720.534,184.15L721.297,181.286L720.238,178.427L722.333,176.317L719.076,172.89L714.169,172.182L716.949,169.582L719.472,169.09L722.005,170.669L725.675,170.513L726.568,172.647L730.751,174.169L732.635,180.453L733.403,187.085L731.97,193.495L731.854,198.651L728.641,202.206L732.022,203.551L733.447,207.488L739.243,215.828L744.923,213.46L746.574,214.718L746.232,219.908L741.92,222.801L741.169,228.414L738.902,231.047L741.625,233.218L743.054,237.664L746.601,239.676L745.48,243.802L747.453,245.479L749.73,250.501L751.958,250.477L755.357,252.763L757.995,252.977L756.766,255.15L750.661,259.93L747.534,269.937L749.281,271.948L752.512,272.639L753.825,274.892L752.13,277.566L754.704,278.854L751.21,281.735L751.166,285.593L752.414,287.55L753.741,288.052Z" class="land" id="BR-TO" title="Tocantins"/>
  </g>
</svg>
